<?xml version="1.0" encoding="utf-8"?>
<!-- Generator: Adobe Illustrator 23.0.6, SVG Export Plug-In . SVG Version: 6.00 Build 0)  -->
<svg version="1.1" 
id="Layer_1" xmlns="http://www.w3.org/2000/svg" xmlns:xlink="http://www.w3.org/1999/xlink" x="0px" y="0px"
	 viewBox="0 0 900 600" style="enable-background:new 0 0 900 600;" xml:space="preserve">
<style type="text/css">
	.st0{fill:#red;}
	.st1{fill:#656499;}
	.st2{fill:#7C7C7C;}
	.st3{fill:#282726;}
	.st4{fill:#B50023;}
	.st5{fill:#484949;}
	.st6{fill:#EAEAEA;}
	.st7{fill:#777777;}
	.st8{fill:none;}
	.st9{fill:#AFACAA;}
	.st10{fill:#D80322;}
	.st11{fill:#E87C05;}
	.st12{fill:#020202;}
	.st13{fill:#B55D06;}
	.st14{fill:#910326;}
	.st15{fill:#C60026;}
	.st16{fill:#444444;}
	.st17{opacity:0.7;fill:#262524;}
	.st18{clip-path:url(#XMLID_7_);}
	.st19{opacity:0.45;clip-path:url(#XMLID_8_);fill:#FFFFFF;}
	.st20{clip-path:url(#XMLID_9_);fill:#FFFFFF;}
	.st21{opacity:0.45;clip-path:url(#XMLID_9_);fill:#FFFFFF;}
	.st22{clip-path:url(#XMLID_10_);fill:#FFFFFF;}
	.st23{opacity:0.45;clip-path:url(#XMLID_10_);fill:#FFFFFF;}
	.st24{opacity:0.45;clip-path:url(#XMLID_11_);fill:#FFFFFF;}
	.st25{fill:#1E1E1E;}
	.st26{fill:#D8D8D8;}
	.st27{fill:#FFFFFF;}
	.st28{fill:#C99557;}
	.st29{fill:#E2AC64;}
	.st30{fill:#62656A;}
</style>
<g>
	<g>
		<path class="st0" d="M847.41,218.87c-8.97,2.05-26.39,3.11-26.39,3.11c-0.57-1.26-0.9-2.03-0.9-2.03s-0.13-0.13-1.04-1.98
			c0.44-0.03,17.14-1.27,24.48-2.95c7.43-1.71,5.92-10.73,5.6-17.96c-0.38-11.58-7.12-17.7-10.08-19.67
			c-2.96-1.96-8.57-2.54-19.66-2.63c-10.87-0.08-18.76,2.52-19.08,2.63c-0.01,0-0.01,0-0.01,0c-0.54-1.21-1.1-2.45-1.68-3.72
			c-0.16-0.34-0.31-0.69-0.47-1.04c0,0,6.71-2.43,20.1-2.33c13.38,0.1,20.14,0.81,23.71,3.18c3.58,2.36,11.71,9.76,12.16,23.72
			C854.56,205.93,856.37,216.82,847.41,218.87z"/>
		<path class="st1" d="M843.56,215.02c-7.34,1.68-24.05,2.92-24.48,2.95c-0.01,0-0.01,0-0.01,0c-1.75-3.53-6.43-13.36-18.72-40.58
			c0.32-0.11,8.21-2.71,19.08-2.63c11.09,0.09,16.69,0.67,19.66,2.63c2.96,1.97,9.71,8.09,10.08,19.67
			C849.48,204.29,850.99,213.31,843.56,215.02z"/>
		<path class="st2" d="M18.4,303.35c2.37-3.14,6.47,1.36,6.47,1.36L14.55,557.79c0,0-0.76,12.05-7.49-2.13
			C-4.01,532.37,11.39,295.24,18.4,303.35z"/>
		<path class="st2" d="M878.75,309.4c-2.37-3.14-7.38-0.64-7.38-0.64l16.49,239.11c0,0,2.1,12.61,7.49-2.13
			C902.37,526.5,882.33,304.74,878.75,309.4z"/>
		<path class="st3" d="M874.57,300.94l-3.06-3.42c0-0.51-4.64-0.51-4.64,0L113.41,413.58L26.73,300.1l-0.16-1.75c0,0,0,0,0,0
			c-2.52-0.05-4.69,1.75-5.11,4.23c-2.63,15.44-8.37,72.61-11.97,109.79c-3.07,31.66-4.35,63.47-3.61,95.27
			c0.67,28.8,2.95,57.97,9.26,63.85c13.15,12.26,11.87,15.57,29.49,15.57c0,0,77.62,9.19,149.62,6.13s168.51-2.04,168.51-2.04
			l293.11,2.67h112.34c0,0,36.51-9.31,57.45-9.31s38.34,3.51,46.98-2.04c3.57-2.3,19.66-14.55,19.66-29.62
			C892.28,537.78,885.47,321.73,874.57,300.94z M558.32,547.23c-8.51,0-183.15,0-183.15,0v-0.51l5.18-4.72
			c0.39-0.36,0.91-0.56,1.44-0.56l21.3,0c0.77,0,1.52,0.19,2.22,0.53c3.95,1.91,27.71,0.89,29.12-0.53l6.42-6.3
			c1.41-1.38,3.3-2.15,5.27-2.15h12.4c1.11,0,2.04,0.77,2.32,1.85c3.31,12.72,41.19,9.17,40.22,4.05c0.12-1.36,14.78-2.1,37.32-2.13
			c1.1,0,2.19,0.21,3.2,0.62C547.16,539.62,565.58,547.23,558.32,547.23z M582.57,547.86c0-1.68,23.38-2.24,31.63-2.38
			c1.89-0.03,3.75-0.41,5.51-1.12l14.14-5.71c1.21-0.49,2.5-0.74,3.8-0.74h15.71c2.86,0,5.67,1.04,7.71,3.05
			c2.31,2.27,5.01,4.13,7.92,5.76c0.56,0.31,0.34,1.15-0.3,1.15L582.57,547.86z M733.08,550.33l-28.89-0.7
			c-0.33-0.01-0.47-0.43-0.2-0.63c4.05-3.01,21.78-16.31,27.71-20.75c0.9-0.68,2.19-0.18,2.41,0.93l3.24,16.06
			C737.89,547.91,735.81,550.4,733.08,550.33z"/>
		<path class="st4" d="M341.04,224.59v92.71c-90.96-0.76-190.85,2.17-292.34,4.31c0-50.84,7.16-74.25,12.8-82.42
			c5.64-8.16,15.26-14.83,58.28-14.83L341.04,224.59z"/>
		<rect x="347.04" y="224.59" class="st5" width="185" height="92.71"/>
		<path class="st6" d="M808.18,172.62c-8.75-5.77-41.65-7.35-51.61-7.35l-0.52-0.01c-5.27-0.21-8.44-3.68-10.94-6.98
			c-2.03-2.66-3.62-5.22-5.52-5.9c-4.34-1.53-112-2.06-121.87-2.06c-5.38,0-7.58,4.13-8.47,7.73c-0.7,2.77-0.61,5.22-0.61,5.22
			h-12.2c0-0.8,0.12-2.93-0.3-5.22c-0.65-3.58-2.61-7.57-8.38-7.57c-4.67-0.05-294.02,0-299.74,0c-3.24,0-4.43,4.12-4.86,7.71
			c-0.32,2.74-0.2,5.17-0.2,5.17h-12.64c0-1.81,0.01-3.56-0.07-5.15c-0.2-4.24-1-7.36-4.15-7.36c-1.32,0-9.28,0.16-20.25,0.38
			c-5.03,0.1-10.69,0.21-16.63,0.34c-23.65,0.48-51.75,1.05-62.18,1.19c-18.77,0.26-31.66-1.02-32.68,1.53
			c-0.19,1.44-0.43,2.7-0.69,3.81c-0.02,0.08-0.04,0.17-0.06,0.25c-0.61,2.46-1.39,4.15-2.18,5.29c-0.89,1.42-2.37,1.95-3.35,2.15
			c-0.01,0.01-0.02,0.01-0.03,0.01c-0.57,0.11-0.97,0.11-0.97,0.11s-25.78-0.64-30.12,1.91c-4.34,2.56-8.43,2.77-8.43,2.77
			c0.17-1.19,4.26-30.47,4.26-30.47s1.7-12.76,31.48-15.15l5.27-0.31l1.14-0.06v-0.01l3.43-0.19c7.06-0.41,14.13-0.63,21.21-0.64
			c13.67-0.03,39.78-0.09,73.72-0.16h12.43v-0.02c167.64-0.33,495.78-0.84,511.15,0.2c11.77,0.8,17.3,2.46,21.68,4.9
			c3.32,1.85,5.97,4.14,10.17,6.84c4.18,6.21,20.31,31.71,23.26,36.37c0.05,0.08,0.09,0.15,0.13,0.21c0.08,0.14,0.15,0.25,0.21,0.34
			C808.13,172.54,808.17,172.61,808.18,172.62z"/>
		<path class="st6" d="M862.15,254c-0.68-3.92-2.56-6.47-7.49-10.22c-3.98-3.01-12.46-16.61-15.63-21.8
			c-0.77-1.26-1.22-2.03-1.22-2.03s-0.17-0.13-1.41-1.98c-0.01,0-0.01,0-0.01,0c-2.37-3.53-8.69-13.36-25.29-40.58
			c-0.01,0-0.01,0-0.01,0c-0.73-1.21-1.49-2.45-2.27-3.72c-0.21-0.34-0.42-0.69-0.63-1.04c0,0,0,0-0.01-0.01
			c-8.75-5.77-41.65-7.35-51.61-7.35l-0.52-0.01l-147.41-1.99h-12.2l-313.48,0.09h-12.64c-4.52,0.28-132.1,0.48-142.24,2.43
			c-0.01,0.01-0.02,0.01-0.03,0.01c-0.57,0.11-0.97,0.11-0.97,0.11s-25.78-0.64-30.12,1.91c-1.36,0.8-2.69,1.37-3.88,1.78
			c-3.28,1.12-6.34,2.79-8.91,5.12c-0.22,0.2-0.44,0.4-0.68,0.63c-0.49,0.46-1.02,0.97-1.6,1.55c-4.04,4.04-15.62,23.5-23.42,37.61
			c-0.66,1.2-1.3,2.36-1.9,3.47c-0.96,1.78-1.83,3.42-2.59,4.88c-6.81,13.1-18.05,23.61-19.71,29.74
			c-1.65,6.13-3.95,19.28-7.79,25.66c-3.83,6.38-1.01,16.21,0,20.04c1.02,3.83,0.14,49.92,0.01,55.79c0,0,8.6-0.85,20.6-2
			c0.02-0.03,0.04-0.04,0.06-0.04v-28.09c0-56.17,7.34-77.61,13.12-86.64c5.79-9.02,15.66-16.38,59.79-16.38l226.98-1.96h185
			l226.98,1.96c44.13,0,56.6,7.36,62.38,16.38c5.79,9.03,13.91,28.13,13.91,84.3v29.61h0.03c0.03,0,0.06,0,0.09,0.01
			c16.19,1.05,29.27,2.08,29.27,2.08c0.77-9.19,4.28-53.17,4.28-55.02c0-1.85,0.38-1.59,2.17-3.32
			C872.93,293.25,862.83,257.91,862.15,254z M440.33,210.91c-6.23,0.99-11.52-4.34-10.49-10.56c0.63-3.77,3.67-6.81,7.44-7.43
			c6.25-1.03,11.58,4.34,10.52,10.59C447.16,207.28,444.11,210.31,440.33,210.91z M478.46,184.55c-1.33,1.58-3.25,2.55-5.63,2.55
			h-66.88c-4.47,0-8.57-3.63-8.79-8.09c-0.13-2.62,0.6-5.01,2.04-6.72c1.32-1.57,3.24-2.55,5.63-2.55h66.91
			c4.57,0,8.52,3.49,8.76,8.05C480.64,180.42,479.9,182.84,478.46,184.55z M860.33,326.15c-0.19,1.41-1.5,0.74-6.48,0.48
			c-4.98-0.25-5.36-49.53-6-58.21c-0.64-8.68,7.91-1.53,7.91-1.53C859.84,269.33,860.52,324.75,860.33,326.15z"/>
		<path d="M480.51,178.42c0,2.39-0.73,4.56-2.05,6.13c-1.33,1.58-3.25,2.55-5.63,2.55h-68c-4.78,0-7.68-3.9-7.68-8.68
			c0-2.39,0.72-4.55,2.05-6.13c1.32-1.57,3.24-2.55,5.63-2.55h68C477.6,169.74,480.51,173.65,480.51,178.42z"/>
		<path class="st7" d="M447.94,201.91c0,5.03-4.08,9.12-9.11,9.12c-5.04,0-9.12-4.09-9.12-9.12c0-5.03,4.08-9.12,9.12-9.12
			C443.86,192.79,447.94,196.88,447.94,201.91z"/>
		<path class="st8" d="M341.04,224.59v92.71c-90.96-0.76-190.85,2.17-292.34,4.31c0-50.84,7.16-74.25,12.8-82.42
			c5.64-8.16,15.26-14.83,58.28-14.83L341.04,224.59z"/>
		<path class="st9" d="M280.57,289.4h-22.55c-2.41,0-4.38-1.97-4.38-4.38v-47.06c0-2.41,1.97-4.38,4.38-4.38h22.55
			c2.41,0,4.38,1.97,4.38,4.38v47.06C284.96,287.42,282.99,289.4,280.57,289.4z"/>
		<circle class="st10" cx="220.28" cy="264.2" r="28.85"/>
		<circle class="st10" cx="155.74" cy="264.2" r="28.85"/>
		
			<ellipse transform="matrix(0.7224 -0.6915 0.6915 0.7224 -158.8018 135.4304)" class="st11" cx="89.27" cy="265.49" rx="26.98" ry="26.15"/>
		<path class="st12" d="M821.4,237.31c-5.78-9.02-18.25-16.38-62.38-16.38l-226.98-1.96V321.4c93.31-0.85,199.15-2.16,303.27,0.21
			C835.31,265.44,827.19,246.34,821.4,237.31z M538.04,317.3v-92.71l221.26-0.23c0.41,0,0.82,0,1.23,0.01
			c42.02,0.12,54.06,6.74,59.65,14.82c5.64,8.17,13.58,29.24,13.58,80.08c-24.37-0.51-48.85-0.94-73.23-1.28
			C683.38,316.92,607.16,316.72,538.04,317.3z"/>
		<path class="st8" d="M625.44,237.95v47.07c0,2.41-1.97,4.38-4.38,4.38h-22.55c-2.41,0-4.38-1.97-4.38-4.38v-47.07
			c0-2.41,1.97-4.38,4.38-4.38h22.55C623.47,233.57,625.44,235.54,625.44,237.95z"/>
		<circle class="st8" cx="658.81" cy="264.21" r="28.85"/>
		<circle class="st8" cx="723.34" cy="264.21" r="28.85"/>
		<rect x="629.96" y="303.36" class="st8" width="124.61" height="10.72"/>
		<path class="st8" d="M792.58,290.49c-15.36,0.67-28.36-11.24-29.04-26.6c-0.67-15.36,11.24-28.36,26.6-29.03
			c15.37-0.67,28.37,11.23,29.04,26.6C819.85,276.82,807.94,289.82,792.58,290.49z"/>
		<path class="st8" d="M625.44,237.95v47.07c0,2.41-1.97,4.38-4.38,4.38h-22.55c-2.41,0-4.38-1.97-4.38-4.38v-47.07
			c0-2.41,1.97-4.38,4.38-4.38h22.55C623.47,233.57,625.44,235.54,625.44,237.95z"/>
		<circle class="st8" cx="658.81" cy="264.21" r="28.85"/>
		<circle class="st8" cx="723.34" cy="264.21" r="28.85"/>
		<path class="st8" d="M792.58,290.49c-15.36,0.67-28.36-11.24-29.04-26.6c-0.67-15.36,11.24-28.36,26.6-29.03
			c15.37-0.67,28.37,11.23,29.04,26.6C819.85,276.82,807.94,289.82,792.58,290.49z"/>
		<path class="st4" d="M759.3,224.36l-221.26,0.23v92.71c69.12-0.58,145.34-0.38,222.49,0.69v-93.62
			C760.12,224.36,759.71,224.36,759.3,224.36z M723.34,235.36c15.94,0,28.85,12.91,28.85,28.85c0,15.93-12.91,28.85-28.85,28.85
			c-15.93,0-28.85-12.92-28.85-28.85C694.49,248.27,707.41,235.36,723.34,235.36z M658.81,235.36c15.93,0,28.85,12.91,28.85,28.85
			c0,15.93-12.92,28.85-28.85,28.85c-15.94,0-28.85-12.92-28.85-28.85C629.96,248.27,642.87,235.36,658.81,235.36z M625.44,285.02
			c0,2.41-1.97,4.38-4.38,4.38h-22.55c-2.41,0-4.38-1.97-4.38-4.38v-47.07c0-2.41,1.97-4.38,4.38-4.38h22.55
			c2.41,0,4.38,1.97,4.38,4.38V285.02z M754.57,314.08H629.96v-10.72h124.61V314.08z"/>
		<path class="st9" d="M625.44,237.95v47.07c0,2.41-1.97,4.38-4.38,4.38h-22.55c-2.41,0-4.38-1.97-4.38-4.38v-47.07
			c0-2.41,1.97-4.38,4.38-4.38h22.55C623.47,233.57,625.44,235.54,625.44,237.95z"/>
		<circle class="st10" cx="658.81" cy="264.21" r="28.85"/>
		<circle class="st10" cx="723.34" cy="264.21" r="28.85"/>
		<rect x="629.96" y="303.36" class="st8" width="124.61" height="10.72"/>
		<path class="st13" d="M820.18,239.19c-5.59-8.08-17.63-14.7-59.65-14.82v93.62c24.38,0.34,48.86,0.77,73.23,1.28
			C833.76,268.43,825.82,247.36,820.18,239.19z M792.58,290.49c-15.36,0.67-28.36-11.24-29.04-26.6
			c-0.67-15.36,11.24-28.36,26.6-29.03c15.37-0.67,28.37,11.23,29.04,26.6C819.85,276.82,807.94,289.82,792.58,290.49z"/>
		<path class="st11" d="M792.58,290.49c-15.36,0.67-28.36-11.24-29.04-26.6c-0.67-15.36,11.24-28.36,26.6-29.03
			c15.37-0.67,28.37,11.23,29.04,26.6C819.85,276.82,807.94,289.82,792.58,290.49z"/>
		<rect x="347.04" y="218.97" class="st12" width="185" height="5.62"/>
		<rect x="347.04" y="317.3" class="st12" width="185" height="4.1"/>
		<path class="st6" d="M835.31,321.61v29.61c-17.03-1.11-37.48-2.25-49.76-2.25h-95.74c-100.09,1.54-188.68,2.81-222.9,2.81
			c-34.21,0-305.87-1.27-305.87-1.27s-45.88-0.3-73.49-0.44C75.27,350,63,350.56,50.78,351.72c-1.26,0.12-2.49,0.24-3.69,0.36
			c0.02-0.03,0.04-0.04,0.06-0.04v-28.09c104.11-2.37,206.58-3.4,299.89-2.55h185C625.35,320.55,731.19,319.24,835.31,321.61z"/>
		<path class="st14" d="M39.89,379.14h-5.81c-3.14,0.38-5.44-18.85-2.29-19.23h5.46c0.25,0,0.43,0.25,0.35,0.49
			c-0.92,2.7,0.89,15.84,2.51,18.33C40.23,378.91,40.11,379.14,39.89,379.14z"/>
		<path class="st15" d="M855.51,378.72l-8.22-0.01c-0.27,0-0.42-0.24-0.28-0.44c2.05-2.69,4.35-16.88,3.19-19.8
			c-0.11-0.26,0.12-0.52,0.44-0.52h6.79c0.69,0,1.31,0.44,1.51,1.1C860.35,363.71,859.1,379.08,855.51,378.72z"/>
		<path class="st6" d="M864,385.93c-0.46,34.5-0.88,83.85-1.34,86.62c-0.68,4.08-5.11,61.27-46.3,61.27h-56.01
			c-0.47,0-0.85-0.37-0.87-0.83l-1.65-53.85c0.07-0.77,0.1-1.55,0.1-2.34c0-1.4-0.1-2.77-0.3-4.12c0.01-0.01,0.01-0.02,0-0.03
			l-0.27-8.87c-1.74-26.39-1.07-52.17,0.36-78.63l69.66-0.6c3.64-0.03,7.27,0,10.9,0.09c3.54,0.09,7.08,0.23,10.61,0.43L864,385.93z
			"/>
		<path class="st8" d="M868.98,298.29h0.16c1.75,0,3.22,1.3,3.43,3.04"/>
		<path class="st14" d="M472.38,185.4h-66.11c-3.67,0-6.68-3.01-6.68-6.68v-0.6c0-3.67,3.01-6.68,6.68-6.68h66.11
			c3.12,0,5.68,2.56,5.68,5.68v2.6C478.06,182.84,475.51,185.4,472.38,185.4z"/>
		<path class="st16" d="M703.81,41.19l-3.79-0.56c-0.93-0.14-1.84-0.34-2.73-0.61c-0.59-0.17-1.16-0.37-1.73-0.59
			c-4.34-1.72-9.3-3.42-15.07-5.14c-20.43-6.09-57.85-11.87-210.36-11.87h-0.28c-2.32,0-4.62,0-6.91,0.01
			C314.66,22.92,223.48,38.37,211.4,42.86c-0.11,0.05-0.23,0.09-0.34,0.13c-1.38,0.52-2.75,1.05-4.13,1.59
			c-3.45,1.36-6.78,2.96-9.99,4.76c-3.17,1.25-4.66,0.38-5.38-0.8c-0.44-0.72-0.59-1.55-0.67-2.1c-0.06-0.47,0-0.96,0.16-1.46
			c0-0.02,0.01-0.03,0.01-0.05c1.89-5.65,16.62-13.06,16.62-13.06c21.08-9.04,76.94-12.26,100.42-14.98
			c23.49-2.72,103.83-6.3,126.64-6.3s122.9,1.7,146.39,2.72c23.49,1.03,61.95,2.9,76.59,5.45c8.89,1.55,19.66,3.98,28.31,6.87
			c0.94,0.31,1.88,0.65,2.79,1.02c0.92,0.37,1.82,0.76,2.71,1.18c0.45,0.22,0.89,0.44,1.33,0.66c0.43,0.22,0.86,0.46,1.28,0.7
			c0.32,0.18,0.63,0.36,0.95,0.55c0.03,0.02,0.06,0.04,0.09,0.06c0.1,0.06,0.2,0.12,0.3,0.18c0.11,0.06,0.21,0.13,0.3,0.19
			c0.01,0,0.01,0.01,0.02,0.01c0.29,0.18,0.58,0.36,0.86,0.55c0.8,0.54,1.58,1.11,2.33,1.71c0.29,0.23,0.57,0.46,0.84,0.7
			c0.12,0.09,0.23,0.2,0.35,0.3c0.32,0.27,0.63,0.55,0.93,0.84c0.38,0.35,0.75,0.72,1.11,1.1c0.1,0.1,0.2,0.21,0.29,0.31
			c0.01,0.01,0.01,0.01,0.02,0.02c0.24,0.25,0.46,0.5,0.68,0.75c0.27,0.3,0.53,0.61,0.78,0.93c0.01,0.02,0.03,0.05,0.05,0.07
			c0.1,0.12,0.2,0.24,0.29,0.37c0.24,0.31,0.47,0.62,0.7,0.94c0.01,0.01,0.02,0.03,0.03,0.04C705.76,39.8,705.03,41.18,703.81,41.19
			z"/>
		<path d="M466.4,40.97c-16.68,0-15.06-3.23-15.06-3.23c0-2.43,10.72-4.21,10.72-8.94c0-1.95,0.33-4.29,0.88-6.37
			c0.79-2.95,2.04-5.37,3.46-5.37s2.67,2.41,3.45,5.36c0.56,2.08,0.89,4.43,0.89,6.38c0,4.73,10.73,6.51,10.73,8.94
			C481.47,37.74,483.08,40.97,466.4,40.97z"/>
		<rect x="629.96" y="303.36" class="st14" width="124.61" height="10.72"/>
		<polygon class="st14" points="125.89,304.35 125.89,315.08 251.51,314.08 251.51,303.35 		"/>
		<path class="st0" d="M88.53,170.59c-0.15,1.05-1.36,1.31-5.04,4.75c0,0-20.41-1.77-28.41,10.66c-3.63,5.46-5.23,11.43-5.07,17.85
			c0.05,1.88,0.64,3.75,1.81,5.22c1.51,1.89,3.78,3.7,6.65,5.43c-0.66,1.2-1.3,2.36-1.9,3.47c0,0-5.83-0.74-10.42-5.17
			c-2.39-2.3-2.3-8.33-1.65-13.59c0.93-7.63,4.15-14.86,9.51-20.37c2.04-2.09,4.43-3.99,7.12-5.19
			C70.32,169.57,88.53,170.59,88.53,170.59z"/>
		<g>
			<path class="st0" d="M807.73,171.89c-2.95-4.66-19.08-30.16-23.26-36.37c-4.2-2.7-6.85-4.99-10.17-6.84
				c-9.3-15.37-47.53-68.21-54.88-74.98c-5.49-5.06-12.29-9.57-22.13-13.68c0.89,0.27,1.8,0.47,2.73,0.61l3.79,0.56
				c1.22-0.01,1.95-1.39,1.25-2.38c10.41,3.14,17.66,8.67,22.66,15.01C745.03,75.77,777.04,121.45,807.73,171.89z"/>
			<path class="st0" d="M196.94,49.34c-9.77,5.49-18.35,12.95-25.22,21.89l-41.04,53.36v0.01l-1.14,0.06l-5.27,0.31
				c0,0,34.44-47.9,53.64-66.88c4.04-3.99,13.65-9.55,13.65-9.55C192.28,49.72,193.77,50.59,196.94,49.34z"/>
			<path class="st0" d="M705.05,38.76c0,0.01-0.01,0.02-0.02,0.01c-0.23-0.32-0.46-0.63-0.7-0.94c-0.09-0.13-0.19-0.25-0.29-0.37
				c-0.02-0.02-0.04-0.05-0.05-0.07c-0.25-0.32-0.51-0.63-0.78-0.93c-0.22-0.25-0.44-0.5-0.68-0.75c-0.01-0.01-0.01-0.01-0.02-0.02
				c-0.09-0.11-0.19-0.21-0.29-0.31c-0.36-0.38-0.73-0.75-1.11-1.1c-0.3-0.29-0.61-0.57-0.93-0.84c-0.12-0.1-0.23-0.21-0.35-0.3
				c-0.27-0.24-0.55-0.47-0.84-0.7c-0.75-0.6-1.53-1.17-2.33-1.71c-0.28-0.19-0.57-0.37-0.86-0.55c-0.01,0-0.01-0.01-0.02-0.01
				c-0.09-0.06-0.19-0.13-0.3-0.19c-0.1-0.07-0.2-0.13-0.3-0.18c-0.03-0.02-0.06-0.04-0.09-0.06c-0.32-0.19-0.63-0.37-0.95-0.55
				c-0.42-0.24-0.85-0.48-1.28-0.7c-0.44-0.22-0.88-0.44-1.33-0.66c-0.89-0.42-1.79-0.81-2.71-1.18c-0.91-0.37-1.85-0.71-2.79-1.02
				c-8.65-2.89-19.42-5.32-28.31-6.87c-14.64-2.55-53.1-4.42-76.59-5.45c-23.49-1.02-123.58-2.72-146.39-2.72
				s-103.15,3.58-126.64,6.3c-23.48,2.72-79.34,5.94-100.42,14.98c0,0-14.73,7.41-16.62,13.06c3.22-20.63,59.61-26.92,89.2-29.51
				c19.62-1.72,39.32-3.78,58.99-4.83c34.93-1.88,88.46-4.07,99.83-4.25c15.83-0.26,79.66-0.26,100.85,0.76
				c20.67,1,116.11,5.22,135.2,11.04C692.14,22.41,702.45,27.81,705.05,38.76z"/>
			<path class="st0" d="M270.32,163.36c-4.52,0.28-132.1,0.48-142.24,2.43c0.98-0.2,2.46-0.73,3.35-2.15
				c0.79-1.14,1.57-2.83,2.18-5.29c0,0,40.08,0.06,97.63,0c-0.06,1.88-0.01,3.99,0.2,3.99h12.19c0.21,0,0.26-2.1,0.2-3.99
				c6.44,0,19.62-0.13,26.42-0.14C270.33,159.8,270.32,161.55,270.32,163.36z"/>
			<path class="st0" d="M596.44,163.27l-313.48,0.09c0,0-0.12-2.43,0.2-5.17c92.87-0.08,218.33-0.15,312.98-0.14
				C596.56,160.34,596.44,162.47,596.44,163.27z"/>
			<path class="st0" d="M756.05,165.26l-147.41-1.99c0,0-0.09-2.45,0.61-5.22c58.58,0.02,114.57,0.1,135.86,0.23
				C747.61,161.58,750.78,165.05,756.05,165.26z"/>
		</g>
		<line class="st8" x1="119.78" y1="224.36" x2="119.78" y2="320.03"/>
		<line class="st8" x1="760.53" y1="224.37" x2="760.53" y2="224.36"/>
		<circle cx="438.83" cy="201.91" r="7.28"/>
		<circle class="st7" cx="438.83" cy="201.91" r="5.66"/>
		<path d="M439.17,199.92c0.01,0,0.02,0,0.03,0c0.42,0.03,0.71,0.43,0.58,0.84c-0.24,0.79-0.65,2.28-0.69,3.29
			c-0.04,0.99-0.7-1.21-1.1-2.67C437.78,200.62,438.38,199.87,439.17,199.92z"/>
		<circle class="st17" cx="156.31" cy="262.78" r="6.82"/>
		<circle class="st17" cx="221.28" cy="263.2" r="6.43"/>
		
			<ellipse transform="matrix(0.7224 -0.6915 0.6915 0.7224 -156.009 139.8138)" class="st17" cx="96.12" cy="264.21" rx="7.61" ry="6.97"/>
		<circle class="st17" cx="723.34" cy="264.21" r="6.82"/>
		<circle class="st17" cx="658.81" cy="264.21" r="6.43"/>
		
			<ellipse transform="matrix(0.6915 -0.7224 0.7224 0.6915 52.3413 648.5627)" class="st17" cx="785.48" cy="263" rx="6.97" ry="7.61"/>
		<g>
			<defs>
				<path id="XMLID_1_" d="M524.85,314.57H354.3c-2.13,0-3.85-1.72-3.85-3.85v-79.09c0-2.13,1.72-3.85,3.85-3.85h170.55
					c2.13,0,3.85,1.72,3.85,3.85v79.09C528.7,312.84,526.98,314.57,524.85,314.57z"/>
			</defs>
			<use xlink:href="#XMLID_1_"  style="overflow:visible;fill:#FFFFFF;"/>
			<clipPath id="XMLID_7_">
				<use xlink:href="#XMLID_1_"  style="overflow:visible;"/>
			</clipPath>
			<ellipse class="st18" cx="383.19" cy="311.96" rx="3.64" ry="4.34"/>
			<ellipse class="st18" cx="495.96" cy="313.7" rx="3.64" ry="4.34"/>
		</g>
		<path class="st1" d="M83.49,175.34c-0.49,0.46-1.02,0.97-1.6,1.55c-4.04,4.04-15.62,23.5-23.42,37.61
			c-2.87-1.73-5.14-3.54-6.65-5.43c-1.17-1.47-1.76-3.34-1.81-5.22c-0.16-6.42,1.44-12.39,5.07-17.85
			C63.08,173.57,83.49,175.34,83.49,175.34z"/>
		<g>
			<g>
				<defs>
					<path id="XMLID_3_" d="M270.25,158.21c-6.8,0.01-19.98,0.14-26.42,0.14c-0.04-1.01-0.1-1.95-0.19-2.48
						c-0.24-1.46,2.01-4.38,2.21-4.64c10.97-0.22,18.93-0.38,20.25-0.38C269.25,150.85,270.05,153.97,270.25,158.21z"/>
				</defs>
				<use xlink:href="#XMLID_3_"  style="overflow:visible;fill:#656499;"/>
				<clipPath id="XMLID_8_">
					<use xlink:href="#XMLID_3_"  style="overflow:visible;"/>
				</clipPath>
				<path class="st19" d="M96.12,198.65C333.19,124.99,571.3,21.2,810.16-103.71c0,0,46.11,39.86,53.84,42.13
					C891.17-53.61,130.91,204.3,96.12,198.65z"/>
			</g>
			<g>
				<g>
					<defs>
						<path id="XMLID_5_" d="M596.14,158.05c-94.65-0.01-220.11,0.06-312.98,0.14c0.43-3.59,1.62-7.71,4.86-7.71
							c5.72,0,295.07-0.05,299.74,0C593.53,150.48,595.49,154.47,596.14,158.05z"/>
					</defs>
					<use xlink:href="#XMLID_5_"  style="overflow:visible;fill:#656499;"/>
					<clipPath id="XMLID_9_">
						<use xlink:href="#XMLID_5_"  style="overflow:visible;"/>
					</clipPath>
					<path class="st20" d="M96.12,198.65l714.04-302.36c0,0,61.56,39.83,53.84,42.13C856.28-59.28,96.12,198.65,96.12,198.65z"/>
					<path class="st21" d="M757.72-7.2l55.66,24.26C664.29,83.67,426.39,141.24,159.83,195.9C400.42,133.2,616.89,67.57,757.72-7.2z
						"/>
				</g>
				<path class="st1" d="M745.11,158.28c-21.29-0.13-77.28-0.21-135.86-0.23c0.89-3.6,3.09-7.73,8.47-7.73
					c9.87,0,117.53,0.53,121.87,2.06C741.49,153.06,743.08,155.62,745.11,158.28z"/>
				<g>
					<defs>
						<path id="XMLID_4_" d="M231.42,155.87c-0.09,0.53-0.15,1.48-0.18,2.48c-57.55,0.06-97.63,0-97.63,0
							c0.02-0.08,0.04-0.17,0.06-0.25c0.26-1.11,0.5-2.37,0.69-3.81c1.02-2.55,13.91-1.27,32.68-1.53
							c10.43-0.14,38.53-0.71,62.18-1.19C229.43,151.81,231.67,154.41,231.42,155.87z"/>
					</defs>
					<use xlink:href="#XMLID_4_"  style="overflow:visible;fill:#4C4A82;"/>
					<clipPath id="XMLID_10_">
						<use xlink:href="#XMLID_4_"  style="overflow:visible;"/>
					</clipPath>
					<polygon class="st22" points="757.72,-7.2 813.38,17.06 159.83,195.9 					"/>
					<path class="st23" d="M96.12,198.65C333.19,124.99,571.3,21.2,810.16-103.71c0,0,46.11,39.86,53.84,42.13
						C891.17-53.61,130.91,204.3,96.12,198.65z"/>
				</g>
				<g>
					<defs>
						<path id="XMLID_2_" d="M774.3,128.68c-4.38-2.44-9.91-4.1-21.68-4.9c-15.37-1.04-343.51-0.53-511.15-0.2l-0.96-6.26
							l-0.03-0.16l-0.29-1.93l-7.39-26.57c-0.57-2.02-0.63-4.15-0.19-6.21c0.56-2.6,1.38-6.41,2.05-9.68
							c0.39-1.91,1.64-3.52,3.39-4.37c3.93-1.92,10.69-5.06,14.22-6.76c-7.49,50.22-1.1,45.93-1.1,45.93l8.42-68.55
							c-3.95,0-7.23,20-7.23,20c-1.55,0.64-19.66,9.44-21.19,10.55c-1.39,1-1.73,6.36-3.18,13.89c-0.26,1.36-0.32,2.75-0.14,4.12
							c1.08,8.09,1.19,36.02,1.19,36.02c-33.94,0.07-60.05,0.13-73.72,0.16c-7.08,0.01-14.15,0.23-21.21,0.64l-3.43,0.19
							l41.04-53.36c6.87-8.94,15.45-16.4,25.22-21.89c3.21-1.8,6.54-3.4,9.99-4.76c1.38-0.54,2.75-1.07,4.13-1.59
							c0.11-0.04,0.23-0.08,0.34-0.13c12.08-4.49,103.26-19.94,251.54-20.43c-0.55,2.08-0.88,4.42-0.88,6.37
							c0,4.73-10.72,6.51-10.72,8.94c0,0-1.62,3.23,15.06,3.23s15.07-3.23,15.07-3.23c0-2.43-10.73-4.21-10.73-8.94
							c0-1.95-0.33-4.3-0.89-6.38h0.28c152.51,0,189.93,5.78,210.36,11.87c5.77,1.72,10.73,3.42,15.07,5.14
							c0.57,0.22,1.14,0.42,1.73,0.59c9.84,4.11,16.64,8.62,22.13,13.68C726.77,60.47,765,113.31,774.3,128.68z"/>
					</defs>
					<use xlink:href="#XMLID_2_"  style="overflow:visible;fill:#656499;"/>
					<clipPath id="XMLID_11_">
						<use xlink:href="#XMLID_2_"  style="overflow:visible;"/>
					</clipPath>
					<path class="st24" d="M96.12,198.65C333.19,124.99,571.3,21.2,810.16-103.71c0,0,46.11,39.86,53.84,42.13
						C891.17-53.61,130.91,204.3,96.12,198.65z"/>
					<path class="st24" d="M757.72-7.2l55.66,24.26C664.29,83.67,426.39,141.24,159.83,195.9C400.42,133.2,616.89,67.57,757.72-7.2z
						"/>
				</g>
			</g>
		</g>
		<g>
			<path class="st25" d="M259.59,39.02l-8.42,68.55c0,0-6.39,4.29,1.1-45.93v-0.01l0.09-2.61
				C252.36,59.02,255.64,39.02,259.59,39.02z"/>
			<path class="st25" d="M243.83,158.35c0.06,1.89,0.01,3.99-0.2,3.99h-12.19c-0.21,0-0.26-2.11-0.2-3.99
				c0.03-1,0.09-1.95,0.18-2.48c0.25-1.46-1.99-4.06-2.2-4.3c5.94-0.13,11.6-0.24,16.63-0.34c-0.2,0.26-2.45,3.18-2.21,4.64
				C243.73,156.4,243.79,157.34,243.83,158.35z"/>
			<path class="st25" d="M253.3,61.14c-0.3,0.15-0.65,0.31-1.03,0.49v0.01c-3.53,1.7-10.29,4.84-14.22,6.76
				c-1.75,0.85-3,2.46-3.39,4.37c-0.67,3.27-1.49,7.08-2.05,9.68c-0.44,2.06-0.38,4.19,0.19,6.21l7.39,26.57l0.29,1.93l0.03,0.16
				l0.96,6.26v0.02h-12.43c0,0-0.11-27.93-1.19-36.02c-0.18-1.37-0.12-2.76,0.14-4.12c1.45-7.53,1.79-12.89,3.18-13.89
				c1.53-1.11,19.64-9.91,21.19-10.55c1.46-0.61,1.63-3.83,1.87-4.07c0,0,0.91-0.44,1.13-0.44c0.13,0,0.87-0.08,0.87,0.96
				C256.23,56.14,256.38,59.63,253.3,61.14z"/>
		</g>
		<path class="st26" d="M838.28,384.64c-3.63-0.09-7.26-0.12-10.9-0.09l-69.66,0.6l-292.34,2.54c0,0-235.81-1.11-354.51-1.66
			c-30.37-0.14-53.08-0.24-62.2-0.28h-0.01c-1.11-0.71-2.58-32.37-1.57-33.67h0.01c1.2-0.12,2.42-0.24,3.68-0.36
			c12.22-1.16,24.49-1.72,36.77-1.65c27.61,0.14,73.49,0.44,73.49,0.44s271.66,1.27,305.87,1.27c34.22,0,122.81-1.27,222.9-2.81
			h95.74c12.28,0,32.73,1.14,49.76,2.25h0.03c0.03,0,0.06,0,0.09,0.01C838.08,351.96,840.91,384.4,838.28,384.64z"/>
		<path class="st27" d="M860.33,326.15c-0.19,1.41-1.5,0.74-6.48,0.48c-4.98-0.25-5.36-49.53-6-58.21
			c-0.64-8.68,7.91-1.53,7.91-1.53C859.84,269.33,860.52,324.75,860.33,326.15z"/>
		<path class="st26" d="M47.1,352.08h-0.01c-11.99,1.15-20.59,2-20.59,2c-0.13,5.87,1.91,29.62,2.55,33.32c0,0,0.02,0,0.07-0.02
			c0.8-0.15,8.48-1.64,15.25-1.64c0.37,0,1.83,0.01,4.29,0.01C47.55,384.85,46.09,353.38,47.1,352.08z M40.09,379.06
			c-0.04,0.05-0.11,0.08-0.19,0.08h-5.81c-0.29,0.03-0.57-0.09-0.83-0.35c-2.5-2.45-4.09-16.39-1.99-18.59
			c0.15-0.17,0.33-0.27,0.53-0.29h5.46c0.1,0,0.19,0.04,0.25,0.11c0.1,0.09,0.15,0.24,0.1,0.38c-0.92,2.7,0.89,15.84,2.51,18.33
			C40.2,378.84,40.18,378.98,40.09,379.06z"/>
		<path class="st26" d="M835.31,351.08c2.65,0.73,5.48,33.17,2.85,33.41c3.54,0.09,7.08,0.23,10.61,0.43l15.11,0.86
			c0.22-16.52,0.45-29.64,0.7-32.62C864.58,353.16,851.5,352.13,835.31,351.08z M855.39,378.57l-8.22-0.01
			c-0.27,0-0.42-0.24-0.28-0.44c2.05-2.69,4.35-16.88,3.19-19.8c-0.11-0.26,0.12-0.52,0.44-0.52h6.79c0.69,0,1.31,0.44,1.51,1.1
			C860.23,363.56,858.98,378.93,855.39,378.57z"/>
		<ellipse class="st28" cx="718.95" cy="479.68" rx="41.98" ry="39.49"/>
		<circle class="st29" cx="722.78" cy="477.01" r="30.81"/>
		<ellipse class="st28" cx="161.49" cy="483.68" rx="41.98" ry="39.49"/>
		<circle class="st29" cx="156.66" cy="479.01" r="30.81"/>
		<g>
			<path d="M406.47,264.65c0,0.24-0.09,0.37-0.27,0.37h-3.88c-0.09,0-0.17-0.01-0.25-0.03c-0.08-0.02-0.12-0.13-0.12-0.33v-19.21
				c0-0.13-0.04-0.21-0.13-0.23c-0.09-0.02-0.18,0.06-0.27,0.23l-4.51,9.49c-0.13,0.18-0.23,0.27-0.3,0.27
				c-0.16,0-0.29-0.09-0.4-0.26c-0.35-0.51-1.11-2.15-2.29-4.93c-1.17-2.77-1.86-4.39-2.05-4.86c-0.04-0.11-0.11-0.16-0.18-0.13
				c-0.08,0.02-0.12,0.11-0.12,0.27v19.2c0,0.2-0.01,0.31-0.03,0.33c-0.11,0-0.22,0-0.33,0h-3.88c-0.18,0-0.27-0.11-0.27-0.33
				v-28.92c0-0.29,0.09-0.43,0.27-0.43h2.45c0.31-0.02,0.5,0.06,0.56,0.23l5.87,12.54c0.13,0.24,0.27,0.36,0.4,0.36
				c0.16,0,0.3-0.12,0.43-0.36l6-12.34c0.11-0.2,0.28-0.3,0.5-0.3h2.52c0.18,0,0.27,0.1,0.27,0.3V264.65z"/>
			<path d="M427.77,264.32c0,0.07,0,0.14,0,0.23c-0.07,0.13-0.24,0.2-0.53,0.2h-16.78c-0.4,0-0.65-0.06-0.76-0.17
				c-0.11-0.11-0.17-0.38-0.17-0.8V235.6c0-0.38,0.19-0.56,0.56-0.56h15.56c0.4,0,0.6,0.16,0.6,0.46v2.75c0,0.31-0.23,0.46-0.7,0.46
				H414.7c-0.38,0-0.59,0.14-0.63,0.41c-0.04,0.28-0.07,0.69-0.07,1.24v4.54c0,0.26,0.04,0.44,0.13,0.51
				c0.09,0.08,0.34,0.12,0.76,0.12h7.36c0.31,0,0.55,0.06,0.71,0.18c0.17,0.12,0.25,0.28,0.25,0.48v2.26c0,0.27-0.09,0.44-0.27,0.53
				c-0.18,0.09-0.36,0.13-0.56,0.13h-7.16c-0.62,0-0.98,0.02-1.08,0.07c-0.1,0.04-0.15,0.26-0.15,0.63v9.72
				c0,0.31,0.3,0.47,0.89,0.47h12.14c0.49,0,0.73,0.15,0.73,0.46V264.32z"/>
			<path d="M449.16,257.64c0,2.24-0.52,3.94-1.56,5.12c-1.17,1.33-3.01,1.99-5.51,1.99h-10.95c-0.22,0-0.44-0.02-0.66-0.07
				c-0.22-0.04-0.33-0.17-0.33-0.37v-3.46c0-0.07,0.48-0.34,1.43-0.83c0.46-0.24,0.7-0.47,0.7-0.67v-19.25
				c0-0.24-0.33-0.52-0.98-0.83c-0.65-0.31-0.98-0.53-0.98-0.67v-3.12c0-0.11,0.07-0.2,0.22-0.27c0.14-0.07,0.3-0.1,0.48-0.1h11.64
				c0.66,0,1.45,0.18,2.37,0.55c0.92,0.37,1.63,0.79,2.14,1.28c0.44,0.42,0.85,0.96,1.23,1.63c0.51,0.91,0.76,1.77,0.76,2.59V257.64
				z M444.32,257.62v-16.05c0-0.71-0.32-1.33-0.96-1.86c-0.64-0.53-1.44-0.8-2.41-0.8h-3.17c-0.18,0-0.36,0.06-0.55,0.18
				c-0.19,0.12-0.28,0.27-0.28,0.45v19.96c0,0.24,0.06,0.4,0.2,0.47s0.45,0.1,0.96,0.1h1.49c2.2,0,3.62-0.3,4.26-0.9
				C444.16,258.89,444.32,258.37,444.32,257.62z"/>
			<path d="M465.81,264.39c0,0.18-0.11,0.26-0.33,0.26h-13.2c-0.27,0-0.4-0.14-0.4-0.43v-3.68c0-0.13,0.08-0.22,0.23-0.26l4.48-0.89
				c0.09-0.04,0.17-0.14,0.23-0.3v-18.65c0-0.16-0.01-0.31-0.02-0.48c-0.01-0.17-0.13-0.33-0.35-0.48c-0.33-0.24-0.67-0.5-1.01-0.76
				c-0.34-0.26-0.51-0.51-0.51-0.73v-2.05c0-0.18,0.06-0.35,0.18-0.53c0.12-0.18,0.34-0.26,0.65-0.26h6.53c0.47,0,0.7,0.21,0.7,0.63
				v2.38c0,0.18-0.19,0.39-0.56,0.63c-0.64,0.4-1.02,0.65-1.13,0.75c-0.11,0.1-0.17,0.4-0.17,0.91v18.95c0,0.13,0.08,0.2,0.23,0.2
				l4.11,0.6c0.22,0,0.33,0.08,0.33,0.23V264.39z"/>
			<path d="M489.12,264.25c0.04,0.33-0.11,0.5-0.46,0.5h-3.68c-0.35,0-0.57-0.17-0.66-0.5l-1.19-5.44h-9.19l-1.19,5.44
				c-0.09,0.33-0.32,0.5-0.7,0.5h-3.65c-0.13,0-0.25-0.06-0.35-0.16c-0.1-0.11-0.14-0.22-0.12-0.33l6.37-28.62
				c0.09-0.33,0.31-0.5,0.66-0.5h7.13c0.38,0,0.6,0.17,0.66,0.5L489.12,264.25z M481.26,254.8c0.38,0,0.6-0.04,0.68-0.11
				c0.08-0.08,0.12-0.19,0.12-0.35c-0.02-0.18-0.03-0.31-0.03-0.4l-3.05-13.84c-0.02-0.13-0.08-0.21-0.17-0.23
				c-0.09-0.02-0.18-0.04-0.26-0.07c-0.09,0-0.19,0.01-0.3,0.03c-0.11,0.02-0.18,0.11-0.2,0.26l-3.02,13.84
				c-0.09,0.38-0.06,0.61,0.1,0.69c0.11,0.11,0.33,0.16,0.66,0.16H481.26z"/>
			<path d="M406.34,275.76l-8.69,11.71c-0.13,0.18-0.2,0.32-0.2,0.43c0,0.07,0.03,0.15,0.08,0.25c0.06,0.1,0.09,0.18,0.12,0.25
				l4.41,7.79c0.91,1.61,1.57,2.81,1.99,3.58c1.44,2.57,2.24,4.02,2.42,4.38c0.07,0.11,0.1,0.21,0.1,0.3c0,0.18-0.12,0.27-0.36,0.27
				h-3.58c-0.35,0-0.57-0.02-0.66-0.07c-0.09-0.11-0.15-0.21-0.2-0.3c-0.99-1.59-1.54-2.47-1.62-2.62
				c-0.93-1.55-1.86-3.08-2.79-4.61c-1.55-2.54-2.43-4-2.65-4.38c-0.07-0.13-0.18-0.2-0.33-0.2c-0.09,0-0.16,0.03-0.23,0.1
				c-0.18,0.18-0.54,0.58-1.08,1.21c-0.54,0.63-0.97,1.1-1.28,1.41c-0.09,0.16-0.13,0.39-0.13,0.7v8.19c0,0.29-0.14,0.43-0.43,0.43
				h-3.58c-0.29,0-0.43-0.14-0.43-0.43V275.4c0-0.31,0.11-0.46,0.33-0.46h3.78c0.31,0,0.47,0.1,0.47,0.3v11.64
				c0,0.69,0.07,1.03,0.2,1.03c0.04,0,0.11-0.04,0.2-0.13c0.38-0.4,1.31-1.54,2.79-3.42c1.15-1.46,2.48-3.18,3.98-5.16
				c1.5-1.98,2.44-3.21,2.82-3.7c0.18-0.27,0.46-0.4,0.86-0.4h3.58c0.2,0,0.3,0.08,0.3,0.23
				C406.51,275.44,406.45,275.58,406.34,275.76z"/>
			<path d="M426.74,303.99c0,0.2-0.08,0.3-0.23,0.3h-3.79c-0.22,0-0.33-0.1-0.33-0.3v-1.09c0-0.09,0-0.18,0-0.26
				c0-0.09,0-0.16,0-0.2c0-0.46-0.17-0.7-0.5-0.7c-0.82,0.73-1.79,1.38-2.92,1.96c-1.13,0.57-2.36,0.86-3.68,0.86
				c-1.79,0-3.32-0.68-4.59-2.04c-1.27-1.36-1.91-2.88-1.91-4.56v-22.69c0-0.22,0.13-0.33,0.4-0.33h3.81c0.24,0,0.37,0.09,0.37,0.26
				v21.5c0,0.79,0.23,1.45,0.7,1.95c0.64,0.71,1.65,1.06,3.02,1.06c1.55,0,2.8-0.6,3.75-1.79c0.88-1.1,1.33-2.43,1.33-3.97v-18.28
				c0-0.16,0-0.32,0-0.5c0.04-0.15,0.16-0.23,0.33-0.23h4.01c0.15,0,0.23,0.11,0.23,0.33V303.99z"/>
			<path d="M448.43,279.44c0,0.15-0.07,0.23-0.2,0.23h-6.6c-0.27,0-0.4,0.09-0.4,0.27v24.28c0,0.22-0.12,0.33-0.37,0.33h-4.01
				c-0.18,0-0.27-0.08-0.27-0.23v-24.14c0-0.33-0.16-0.5-0.46-0.5h-6.1c-0.16,0-0.23-0.11-0.23-0.33v-4.02
				c0-0.07,0.06-0.15,0.17-0.26c0.02-0.02,0.04-0.04,0.07-0.07h18.11c0.2,0,0.3,0.11,0.3,0.33V279.44z"/>
			<path d="M470.72,275.76l-8.69,11.71c-0.13,0.18-0.2,0.32-0.2,0.43c0,0.07,0.03,0.15,0.08,0.25c0.06,0.1,0.09,0.18,0.12,0.25
				l4.41,7.79c0.91,1.61,1.57,2.81,1.99,3.58c1.44,2.57,2.24,4.02,2.42,4.38c0.07,0.11,0.1,0.21,0.1,0.3c0,0.18-0.12,0.27-0.36,0.27
				H467c-0.35,0-0.57-0.02-0.66-0.07c-0.09-0.11-0.15-0.21-0.2-0.3c-0.99-1.59-1.54-2.47-1.62-2.62c-0.93-1.55-1.86-3.08-2.79-4.61
				c-1.55-2.54-2.43-4-2.65-4.38c-0.07-0.13-0.18-0.2-0.33-0.2c-0.09,0-0.16,0.03-0.23,0.1c-0.18,0.18-0.54,0.58-1.08,1.21
				c-0.54,0.63-0.97,1.1-1.28,1.41c-0.09,0.16-0.13,0.39-0.13,0.7v8.19c0,0.29-0.14,0.43-0.43,0.43h-3.58
				c-0.29,0-0.43-0.14-0.43-0.43V275.4c0-0.31,0.11-0.46,0.33-0.46h3.78c0.31,0,0.47,0.1,0.47,0.3v11.64c0,0.69,0.07,1.03,0.2,1.03
				c0.04,0,0.11-0.04,0.2-0.13c0.38-0.4,1.31-1.54,2.79-3.42c1.15-1.46,2.48-3.18,3.98-5.16c1.5-1.98,2.44-3.21,2.82-3.7
				c0.18-0.27,0.46-0.4,0.86-0.4h3.58c0.2,0,0.3,0.08,0.3,0.23C470.88,275.44,470.83,275.58,470.72,275.76z"/>
			<path d="M493.87,304.05c0.04,0.33-0.11,0.5-0.46,0.5h-3.68c-0.35,0-0.57-0.17-0.66-0.5l-1.19-5.44h-9.19l-1.19,5.44
				c-0.09,0.33-0.32,0.5-0.7,0.5h-3.65c-0.13,0-0.25-0.06-0.35-0.16c-0.1-0.11-0.14-0.22-0.12-0.33l6.37-28.62
				c0.09-0.33,0.31-0.5,0.66-0.5h7.13c0.38,0,0.6,0.17,0.66,0.5L493.87,304.05z M486.01,294.6c0.38,0,0.6-0.04,0.68-0.11
				c0.08-0.08,0.12-0.19,0.12-0.35c-0.02-0.18-0.03-0.31-0.03-0.4l-3.05-13.84c-0.02-0.13-0.08-0.21-0.17-0.23
				c-0.09-0.02-0.18-0.04-0.26-0.07c-0.09,0-0.19,0.01-0.3,0.03c-0.11,0.02-0.18,0.11-0.2,0.26l-3.02,13.84
				c-0.09,0.38-0.06,0.61,0.1,0.69c0.11,0.11,0.33,0.16,0.66,0.16H486.01z"/>
		</g>
		<path class="st6" d="M757.36,463.78c-0.9,0.03-1.68,0.13-2.35,0.26c-1.15-2.36-2.6-4.56-4.32-6.52
			c-1.92-7.33-9.69-15.87-32.2-15.87c-40.17,0-31.07,21.77-33.7,21.77c-2.38,0-401.63,7.44-480.64,4.38
			c-8.5-0.33-13.29-0.79-13.49-1.38c-0.68-2.04-1.16-4.99-2.63-8.04c-2.95-6.14-9.92-12.64-30.56-12.64
			c-22.77,0-28.34,9.57-29.7,14.6c-0.86,0.95-1.8,7.14-2.52,8.2l-7.36,11.54l-4.53-12.13c1-26.75,0.78-57.55-2.49-81.92
			c118.7,0.55,354.51,1.66,354.51,1.66l292.34-2.54C756.29,411.61,755.62,437.39,757.36,463.78z"/>
		<path class="st6" d="M122.51,524.27c0.04,3.87-2.74,7.12-6.39,7.45c-9.88,0.92-29.49,2.02-47.42,1.37
			c-28.2-1.02-42.17-46.72-42.17-58.46c0-11.31,2.89-78.92,2.54-87.26c0.78-0.15,8.29-1.64,14.9-1.64c0.36,0,1.79,0.01,4.19,0.01
			h0.01c8.91,0.04,41.86,0.14,71.54,0.28c3.2,24.37,2.57,50,1.59,76.75C121.79,463.66,122.33,507.39,122.51,524.27z"/>
		<path d="M763.93,468.8c0,0.79-0.03,1.57-0.1,2.34c-1.2,15.27-14.14,27.28-29.92,27.28c-16.58,0-30.02-13.26-30.02-29.62
			c0-16.35,13.44-29.61,30.02-29.61c9.11,0,17.28,4.01,22.78,10.33c1.72,1.96,3.17,4.16,4.32,6.52c1.29,2.68,2.19,5.57,2.62,8.61
			c0.01,0.01,0.01,0.02,0,0.03C763.83,466.03,763.93,467.4,763.93,468.8z"/>
		<path d="M117.51,471.8c0,0.79,0.03,1.57,0.1,2.34c1.2,15.27,14.14,27.28,29.92,27.28c16.58,0,30.02-13.26,30.02-29.62
			c0-16.35-13.44-29.61-30.02-29.61c-9.11,0-17.28,4.01-22.78,10.33c-1.72,1.96-3.17,4.16-4.32,6.52c-1.29,2.68-2.19,5.57-2.62,8.61
			c-0.01,0.01-0.01,0.02,0,0.03C117.61,469.03,117.51,470.4,117.51,471.8z"/>
		<path class="st13" d="M48.7,321.61c23.37-0.53,46.84-0.97,70.22-1.32v-96.56c-40.3,0.12-51.84,6.95-57.2,15.28
			C56.32,247.44,48.7,269.17,48.7,321.61z M62.73,264.75c-0.03-13.18,13.39-26.68,28.11-25.79c12.37,0.74,25.2,12.23,25.2,25.54
			c0,14.78-13.12,28.13-27.85,27.43C73.46,291.23,62.76,280.6,62.73,264.75z"/>
		<path class="st12" d="M120.06,220.93c-44.13,0-54,7.36-59.79,16.38c-5.78,9.03-13.12,30.47-13.12,86.64
			c104.11-2.37,206.58-3.4,299.89-2.55V218.97L120.06,220.93z M341.04,317.3c-90.96-0.76-190.85,2.17-292.34,4.31
			c0-50.84,7.16-74.25,12.8-82.42c5.64-8.16,15.26-14.83,58.28-14.83l221.26,0.23V317.3z"/>
	</g>
	<g>
		<path class="st30" d="M666.04,197.84c0,0.68,0,1.16,0,1.69c-2.35,0-4.65,0-7.05,0c-0.02-0.34-0.05-0.66-0.05-0.98
			c0-3.21,0-6.42,0-9.63c0-1.4-0.6-1.96-2.1-2c-0.6-0.01-1.21,0-1.93,0c0,4.24,0,8.4,0,12.62c-2.32,0-4.52,0-6.81,0
			c0-4.19,0-8.33,0-12.54c-1.31,0-2.54,0-3.9,0c0,4.15,0,8.31,0,12.53c-2.45,0-4.78,0-7.17,0c0-6.2,0-12.37,0-18.66
			c0.38,0,0.75,0,1.13,0c6.84,0,13.68,0,20.52,0c4.66,0,7.35,2.54,7.35,6.95c0,0.35,0,0.7,0,1.22c1.9-1.48,4.01-1.51,6.14-1.51
			c2.28,0,4.56,0,6.99-0.21c-0.33-0.25-0.62-0.62-1-0.73c-0.54-0.16-1.13-0.2-1.7-0.2c-2.95-0.02-5.91-0.01-8.86-0.01
			c-0.34,0-0.69,0-1.09,0c0-1.85,0-3.6,0-5.42c0.22-0.03,0.46-0.09,0.71-0.09c4.18-0.01,8.35-0.03,12.53,0
			c2.97,0.02,5.1,1.45,5.67,3.75c0.16,0.64,0.17,1.32,0.17,1.98c0.03,2.18,0.02,4.36,0.03,6.54c0,0.06,0.04,0.11,0.1,0.25
			c0.21-0.13,0.43-0.24,0.61-0.38c5.16-3.85,10.31-7.72,15.5-11.54c0.48-0.35,1.2-0.59,1.81-0.59c5.14-0.05,10.28,0.07,15.42-0.05
			c4.31-0.1,7.21,2.38,7.68,6.75c0.05,0.44,0.09,0.88,0.14,1.48c1.76-1.43,3.75-1.51,5.75-1.52c2.12-0.01,4.24,0,6.36,0
			c0.31,0,0.62,0,1.02,0c-0.32-0.96-1.03-1.1-1.77-1.11c-2.5-0.03-5.01-0.03-7.51-0.04c-1.06,0-2.12,0-3.25,0c0-1.83,0-3.6,0-5.46
			c0.31-0.02,0.62-0.05,0.93-0.05c4.01,0,8.03-0.01,12.04,0c1.83,0.01,3.5,0.43,4.79,1.74c0.89,0.91,1.29,2.03,1.3,3.24
			c0.03,4.42,0.01,8.85,0.01,13.27c0,0.12-0.04,0.23-0.07,0.46c-0.38,0-0.76,0-1.14,0c-4.34,0-8.67-0.03-13.01,0.01
			c-3.01,0.02-5.39-0.9-6.65-3.64c-0.07,0.02-0.12,0.02-0.13,0.04c-1.61,2.79-4.17,3.65-7.41,3.54c-3.88-0.13-7.77-0.03-11.66-0.03
			c-0.35,0-0.69,0-1.11,0c0-4.28,0-8.48,0-12.9c-0.42,0.31-0.68,0.49-0.94,0.69c-5.17,3.93-10.34,7.88-15.54,11.79
			c-0.39,0.29-0.97,0.49-1.46,0.49c-5.52,0.03-11.05,0.02-16.57,0.02C669.11,199.59,667.53,199.13,666.04,197.84z M665.38,196.07
			c1.47,2.31,3.63,2.93,6.23,2.9c5.17-0.06,10.34,0,15.51-0.04c0.52,0,1.14-0.2,1.54-0.51c5.6-4.21,11.16-8.46,16.74-12.69
			c0.16-0.12,0.34-0.2,0.68-0.4c0,4.6,0,9.03,0,13.46c0.25,0.03,0.37,0.06,0.5,0.06c4.37,0,8.74,0.07,13.1-0.04
			c1.09-0.03,2.36-0.37,3.21-0.98c0.97-0.7,1.55-1.86,2.32-2.81c0.15-0.19,0.37-0.34,0.56-0.51c0.13,0.15,0.32,0.28,0.38,0.45
			c1.02,2.81,2.73,3.98,5.86,3.98c3.98,0,7.96,0,11.95,0c0.6,0,1.2,0,1.91,0c0-0.41,0-0.74,0-1.06c0-3.79,0-7.57,0-11.36
			c0-3.25-1.88-5.02-5.37-5.03c-3.85-0.01-7.71,0-11.56,0c-0.25,0-0.49,0-0.77,0c0,1.44,0,2.79,0,4.21c0.4,0,0.75,0,1.09,0
			c2.76,0,5.52-0.02,8.28,0.02c0.72,0.01,1.48,0.13,2.15,0.37c0.95,0.35,1.2,1.17,0.79,2.09c-1.75,0-3.52,0-5.28,0
			c-1.16,0-2.31,0-3.47,0c-2.31,0-4.28,0.63-5.44,2.86c-0.11-1.47-0.11-2.77-0.31-4.04c-0.55-3.61-3.26-5.61-6.75-5.54
			c-5.07,0.11-10.15,0.04-15.22,0.01c-0.8-0.01-1.39,0.22-2,0.67c-5.37,4.04-10.76,8.05-16.15,12.08c-0.26,0.19-0.53,0.37-0.91,0.63
			c0-1.95,0-3.7,0-5.46c0-1,0-2,0-3c0-3.05-1.88-4.88-5.12-4.9c-4.01-0.03-8.03-0.01-12.04,0c-0.18,0-0.36,0.05-0.52,0.07
			c0,1.4,0,2.74,0,4.14c3.12,0,6.17-0.02,9.22,0.01c0.73,0.01,1.48,0.1,2.17,0.32c1.02,0.32,1.34,1.09,1.01,2.15
			c-0.33,0-0.68,0-1.03,0c-2.67,0.01-5.33,0.01-8,0.02c-2.13,0.01-3.9,0.64-4.99,2.5c-0.01,0.02-0.11,0-0.25,0
			c0-1.01,0.02-2.04,0-3.06c-0.07-3.93-2.48-6.16-6.66-6.16c-6.65,0-13.29,0-19.94,0c-0.34,0-0.68,0-1.04,0c0,5.87,0,11.61,0,17.4
			c1.92,0,3.8,0,5.8,0c0-4.22,0-8.41,0-12.59c1.78,0,3.44,0,5.2,0c0,4.21,0,8.38,0,12.59c1.88,0,3.66,0,5.54,0c0-4.21,0-8.38,0-12.6
			c1.12,0,2.15-0.09,3.15,0.02c1.51,0.17,2.23,1.03,2.24,2.48c0.01,2,0,4,0,6c0,1.35,0,2.71,0,4.1c1.94,0,3.79,0,5.73,0
			C665.38,197.92,665.38,196.99,665.38,196.07z"/>
		<path class="st30" d="M685.98,186.92c0-2.05,0-3.98,0-5.98c5.15,0,10.29,0,15.62,0c-2.55,2-4.96,3.9-7.39,5.78
			c-0.16,0.12-0.41,0.19-0.61,0.19C691.1,186.92,688.6,186.92,685.98,186.92z M699.73,181.55c-4.48,0-8.75,0-13.03,0
			c0,1.58,0,3.11,0,4.7c2.27,0,4.48,0,6.69-0.01c0.18,0,0.4-0.05,0.53-0.16C695.82,184.62,697.7,183.14,699.73,181.55z"/>
		<path class="st30" d="M689.29,199.52c1.94-1.51,3.8-2.8,5.46-4.29c1.43-1.28,2.97-1.78,4.91-1.62c1.71,0.14,3.45,0.03,5.25,0.03
			c0,1.97,0,3.89,0,5.88C699.78,199.52,694.65,199.52,689.29,199.52z M704.21,198.91c0-1.6,0-3.09,0-4.65
			c-2.1,0-4.12-0.03-6.13,0.02c-0.52,0.01-1.13,0.21-1.54,0.5c-1.6,1.16-3.14,2.39-4.7,3.6c-0.17,0.14-0.32,0.31-0.53,0.52
			C695.69,198.91,699.94,198.91,704.21,198.91z"/>
		<path class="st30" d="M665.38,196.07c0,0.92,0,1.85,0,2.83c-1.94,0-3.78,0-5.73,0c0-1.39,0-2.74,0-4.1c0-2,0.01-4,0-6
			c-0.01-1.45-0.73-2.31-2.24-2.48c-1-0.11-2.03-0.02-3.15-0.02c0,4.22,0,8.39,0,12.6c-1.88,0-3.66,0-5.54,0c0-4.21,0-8.38,0-12.59
			c-1.76,0-3.42,0-5.2,0c0,4.19,0,8.37,0,12.59c-2,0-3.88,0-5.8,0c0-5.79,0-11.54,0-17.4c0.36,0,0.7,0,1.04,0
			c6.65,0,13.29,0,19.94,0c4.17,0,6.59,2.23,6.66,6.16c0.02,1.02,0,2.04,0,3.06c0.15,0,0.24,0.02,0.25,0
			c1.09-1.86,2.86-2.5,4.99-2.5c2.67-0.01,5.33-0.02,8-0.02c0.35,0,0.7,0,1.03,0c0.33-1.06,0.01-1.82-1.01-2.15
			c-0.68-0.22-1.44-0.31-2.17-0.32c-3.05-0.03-6.1-0.01-9.22-0.01c0-1.4,0-2.74,0-4.14c0.16-0.02,0.34-0.07,0.52-0.07
			c4.01,0,8.03-0.03,12.04,0c3.24,0.02,5.12,1.86,5.12,4.9c0,1,0,2,0,3c0,1.75,0,3.51,0,5.46c0.38-0.27,0.65-0.44,0.91-0.63
			c5.39-4.02,10.78-8.04,16.15-12.08c0.61-0.46,1.2-0.68,2-0.67c5.07,0.03,10.15,0.1,15.22-0.01c3.5-0.07,6.21,1.93,6.75,5.54
			c0.19,1.27,0.2,2.57,0.31,4.04c1.16-2.23,3.13-2.86,5.44-2.86c1.16,0,2.31,0,3.47,0c1.77,0,3.53,0,5.28,0
			c0.42-0.92,0.17-1.74-0.79-2.09c-0.67-0.25-1.43-0.36-2.15-0.37c-2.76-0.04-5.52-0.02-8.28-0.02c-0.35,0-0.69,0-1.09,0
			c0-1.43,0-2.77,0-4.21c0.28,0,0.53,0,0.77,0c3.85,0,7.71-0.01,11.56,0c3.49,0.01,5.37,1.78,5.37,5.03c0,3.79,0,7.57,0,11.36
			c0,0.33,0,0.65,0,1.06c-0.7,0-1.3,0-1.91,0c-3.98,0-7.96,0-11.95,0c-3.13,0-4.84-1.17-5.86-3.98c-0.06-0.17-0.25-0.3-0.38-0.45
			c-0.19,0.17-0.41,0.31-0.56,0.51c-0.77,0.95-1.35,2.12-2.32,2.81c-0.85,0.61-2.12,0.95-3.21,0.98c-4.36,0.11-8.73,0.04-13.1,0.04
			c-0.12,0-0.25-0.03-0.5-0.06c0-4.43,0-8.86,0-13.46c-0.34,0.2-0.52,0.29-0.68,0.4c-5.58,4.23-11.14,8.48-16.74,12.69
			c-0.41,0.31-1.02,0.51-1.54,0.51c-5.17,0.04-10.34-0.02-15.51,0.04C669.01,199,666.85,198.38,665.38,196.07z M711.6,194.23
			c2.25,0,4.39,0.04,6.54-0.01c1.27-0.03,2.16-0.78,2.38-1.9c0.24-1.2,0.34-2.47,0.2-3.67c-0.15-1.32-1.06-2.43-2.49-2.55
			c-2.18-0.18-4.39-0.05-6.62-0.05C711.6,188.76,711.6,191.44,711.6,194.23z M740.49,191.6c-2.5,0-4.9-0.03-7.3,0.02
			c-1.03,0.02-1.56,0.64-1.52,1.52c0.04,0.88,0.6,1.42,1.6,1.47c0.67,0.03,1.34,0.01,2.02,0.01c1.72,0,3.43,0,5.2,0
			C740.49,193.57,740.49,192.65,740.49,191.6z M679.69,191.6c-2.51,0-4.94-0.03-7.37,0.02c-0.91,0.02-1.43,0.62-1.45,1.41
			c-0.02,0.84,0.51,1.53,1.4,1.55c2.46,0.05,4.91,0.02,7.41,0.02C679.69,193.58,679.69,192.66,679.69,191.6z"/>
		<path class="st30" d="M699.65,181.61c-2.03,1.59-3.91,3.07-5.81,4.53c-0.13,0.1-0.35,0.16-0.53,0.16
			c-2.21,0.01-4.42,0.01-6.69,0.01c0-1.59,0-3.12,0-4.7C690.91,181.61,695.18,181.61,699.65,181.61z"/>
		<path class="st30" d="M704.21,198.91c-4.27,0-8.52,0-12.9,0c0.22-0.21,0.36-0.39,0.53-0.52c1.56-1.21,3.1-2.44,4.7-3.6
			c0.41-0.3,1.02-0.49,1.54-0.5c2.01-0.06,4.03-0.02,6.13-0.02C704.21,195.81,704.21,197.3,704.21,198.91z"/>
		<path class="st30" d="M711.6,194.23c0-2.78,0-5.46,0-8.18c2.23,0,4.44-0.13,6.62,0.05c1.43,0.12,2.34,1.23,2.49,2.55
			c0.14,1.21,0.04,2.47-0.2,3.67c-0.22,1.12-1.11,1.87-2.38,1.9C716,194.26,713.85,194.23,711.6,194.23z M712.3,193.65
			c1.53,0,2.97,0,4.4,0c2.61,0,3.44-0.77,3.49-3.24c0.01-0.39,0.02-0.79-0.02-1.18c-0.14-1.35-1.04-2.5-2.29-2.58
			c-1.84-0.12-3.7-0.03-5.58-0.03C712.3,188.97,712.3,191.23,712.3,193.65z"/>
		<path class="st30" d="M740.49,191.6c0,1.05,0,1.97,0,3.01c-1.76,0-3.48,0-5.2,0c-0.67,0-1.35,0.02-2.02-0.01
			c-1-0.05-1.57-0.59-1.6-1.47c-0.04-0.88,0.49-1.5,1.52-1.52C735.59,191.57,737.98,191.6,740.49,191.6z M739.82,192.23
			c-2.2,0-4.34-0.03-6.48,0.04c-0.34,0.01-0.85,0.45-0.95,0.77c-0.17,0.56,0.33,0.93,0.89,0.94c2.17,0.03,4.34,0.01,6.54,0.01
			C739.82,193.38,739.82,192.88,739.82,192.23z"/>
		<path class="st30" d="M679.69,191.6c0,1.05,0,1.98,0,2.99c-2.5,0-4.96,0.03-7.41-0.02c-0.9-0.02-1.43-0.7-1.4-1.55
			c0.02-0.79,0.54-1.39,1.45-1.41C674.75,191.57,677.18,191.6,679.69,191.6z M679,192.23c-2.23,0-4.4-0.03-6.57,0.04
			c-0.29,0.01-0.83,0.54-0.8,0.77c0.05,0.34,0.51,0.88,0.81,0.89c2.17,0.08,4.34,0.04,6.56,0.04C679,193.37,679,192.84,679,192.23z"
			/>
	</g>
	<g>
		<path class="st30" d="M122.89,193.09v5.73c0,0.61,0.49,1.1,1.1,1.1h24.24v-7.85h-24.32C123.35,192.06,122.89,192.52,122.89,193.09
			z"/>
		<path class="st30" d="M201.15,199.02l-9.89-9.89l9.45-6.54c0.47-0.32,0.24-1.06-0.33-1.06h-8.93c0,0-4.09,4.28-4.28,4.28
			c-0.19,0-4.15-4.15-4.15-4.15h-7.54c-0.53,0-0.78,0.66-0.39,1.01l7.92,7.03c0,0-8.62,6.96-8.81,6.96s-4.85-4.85-4.85-4.85
			c7.23,0,7.23-10.15,0-10.15h-20.64c-0.27,0-0.49,0.22-0.49,0.49v17.77l5.22,0.08c0.43,0.01,0.78-0.34,0.78-0.76v-5.95h8.55
			l6.05,6.05c0.42,0.42,1,0.66,1.6,0.66h8.52c0.56,0,1.09-0.22,1.49-0.62l6.72-6.72l7.36,7.36h6.23
			C201.25,200.01,201.51,199.39,201.15,199.02z M167.45,188.74H154.3v-3.06h13.15C168.98,185.68,168.98,188.74,167.45,188.74z"/>
		<rect x="201.53" y="188.74" class="st30" width="6.89" height="4.79"/>
		<path class="st30" d="M206.32,181.53v4.85h14.23l-13.93,13.93h9.02l11.4-11.4c4.66-4.66,2.26-7.38,0-7.38H206.32z"/>
	</g>
</g>
</svg>