<svg version="1.1" id="Layer_1" xmlns="http://www.w3.org/2000/svg" xmlns:xlink="http://www.w3.org/1999/xlink" x="0" y="0" viewBox="0 0 900 600" xml:space="preserve"><style>.st0{fill:#c4c4c4}.st1{fill:#656499}.st2{fill:#7c7c7c}.st4{fill:#b50023}.st6{fill:#eaeaea}.st7{fill:#777}.st8{fill:none}.st9{fill:#afacaa}.st10{fill:#d80322}.st11{fill:#e87c05}.st12{fill:#020202}.st13{fill:#b55d06}.st14{fill:#910326}.st17{opacity:.7;fill:#262524}.st18{clip-path:url(#XMLID_7_)}.st24{opacity:.45;clip-path:url(#XMLID_11_);fill:#fff}.st25{fill:#1e1e1e}.st26{fill:#d8d8d8}.st28{fill:#c99557}.st29{fill:#e2ac64}.st30{fill:#62656a}</style><path class="st0" d="M847.41 218.87c-8.97 2.05-26.39 3.11-26.39 3.11-.57-1.26-.9-2.03-.9-2.03s-.13-.13-1.04-1.98c.44-.03 17.14-1.27 24.48-2.95 7.43-1.71 5.92-10.73 5.6-17.96-.38-11.58-7.12-17.7-10.08-19.67-2.96-1.96-8.57-2.54-19.66-2.63-10.87-.08-18.76 2.52-19.08 2.63h-.01c-.54-1.21-1.1-2.45-1.68-3.72-.16-.34-.31-.69-.47-1.04 0 0 6.71-2.43 20.1-2.33 13.38.1 20.14.81 23.71 3.18 3.58 2.36 11.71 9.76 12.16 23.72.41 8.73 2.22 19.62-6.74 21.67z"/><path class="st1" d="M843.56 215.02c-7.34 1.68-24.05 2.92-24.48 2.95h-.01c-1.75-3.53-6.43-13.36-18.72-40.58.32-.11 8.21-2.71 19.08-2.63 11.09.09 16.69.67 19.66 2.63 2.96 1.97 9.71 8.09 10.08 19.67.31 7.23 1.82 16.25-5.61 17.96z"/><path class="st2" d="M18.4 303.35c2.37-3.14 6.47 1.36 6.47 1.36L14.55 557.79s-.76 12.05-7.49-2.13c-11.07-23.29 4.33-260.42 11.34-252.31zM878.75 309.4c-2.37-3.14-7.38-.64-7.38-.64l16.49 239.11s2.1 12.61 7.49-2.13c7.02-19.24-13.02-241-16.6-236.34z"/><path d="M874.57 300.94l-3.06-3.42c0-.51-4.64-.51-4.64 0L113.41 413.58 26.73 300.1l-.16-1.75a5.078 5.078 0 00-5.11 4.23c-2.63 15.44-8.37 72.61-11.97 109.79-3.07 31.66-4.35 63.47-3.61 95.27.67 28.8 2.95 57.97 9.26 63.85 13.15 12.26 11.87 15.57 29.49 15.57 0 0 77.62 9.19 149.62 6.13s168.51-2.04 168.51-2.04l293.11 2.67h112.34s36.51-9.31 57.45-9.31 38.34 3.51 46.98-2.04c3.57-2.3 19.66-14.55 19.66-29.62-.02-15.07-6.83-231.12-17.73-251.91zM558.32 547.23H375.17v-.51l5.18-4.72c.39-.36.91-.56 1.44-.56h21.3c.77 0 1.52.19 2.22.53 3.95 1.91 27.71.89 29.12-.53l6.42-6.3a7.53 7.53 0 015.27-2.15h12.4c1.11 0 2.04.77 2.32 1.85 3.31 12.72 41.19 9.17 40.22 4.05.12-1.36 14.78-2.1 37.32-2.13 1.1 0 2.19.21 3.2.62 5.58 2.24 24 9.85 16.74 9.85zm24.25.63c0-1.68 23.38-2.24 31.63-2.38 1.89-.03 3.75-.41 5.51-1.12l14.14-5.71c1.21-.49 2.5-.74 3.8-.74h15.71c2.86 0 5.67 1.04 7.71 3.05 2.31 2.27 5.01 4.13 7.92 5.76.56.31.34 1.15-.3 1.15l-86.12-.01zm150.51 2.47l-28.89-.7c-.33-.01-.47-.43-.2-.63 4.05-3.01 21.78-16.31 27.71-20.75.9-.68 2.19-.18 2.41.93l3.24 16.06c.54 2.67-1.54 5.16-4.27 5.09z" fill="#282726"/><path class="st4" d="M341.04 224.59v92.71c-90.96-.76-190.85 2.17-292.34 4.31 0-50.84 7.16-74.25 12.8-82.42 5.64-8.16 15.26-14.83 58.28-14.83l221.26.23z"/><path fill="#484949" d="M347.04 224.59h185v92.71h-185z"/><path class="st6" d="M808.18 172.62c-8.75-5.77-41.65-7.35-51.61-7.35l-.52-.01c-5.27-.21-8.44-3.68-10.94-6.98-2.03-2.66-3.62-5.22-5.52-5.9-4.34-1.53-112-2.06-121.87-2.06-5.38 0-7.58 4.13-8.47 7.73-.7 2.77-.61 5.22-.61 5.22h-12.2c0-.8.12-2.93-.3-5.22-.65-3.58-2.61-7.57-8.38-7.57-4.67-.05-294.02 0-299.74 0-3.24 0-4.43 4.12-4.86 7.71-.32 2.74-.2 5.17-.2 5.17h-12.64c0-1.81.01-3.56-.07-5.15-.2-4.24-1-7.36-4.15-7.36-1.32 0-9.28.16-20.25.38-5.03.1-10.69.21-16.63.34-23.65.48-51.75 1.05-62.18 1.19-18.77.26-31.66-1.02-32.68 1.53-.19 1.44-.43 2.7-.69 3.81l-.06.25c-.61 2.46-1.39 4.15-2.18 5.29-.89 1.42-2.37 1.95-3.35 2.15-.01.01-.02.01-.03.01-.57.11-.97.11-.97.11s-25.78-.64-30.12 1.91c-4.34 2.56-8.43 2.77-8.43 2.77.17-1.19 4.26-30.47 4.26-30.47s1.7-12.76 31.48-15.15l5.27-.31 1.14-.06v-.01l3.43-.19c7.06-.41 14.13-.63 21.21-.64 13.67-.03 39.78-.09 73.72-.16h12.43v-.02c167.64-.33 495.78-.84 511.15.2 11.77.8 17.3 2.46 21.68 4.9 3.32 1.85 5.97 4.14 10.17 6.84 4.18 6.21 20.31 31.71 23.26 36.37.05.08.09.15.13.21.08.14.15.25.21.34.06.1.1.17.11.18z"/><path class="st6" d="M862.15 254c-.68-3.92-2.56-6.47-7.49-10.22-3.98-3.01-12.46-16.61-15.63-21.8-.77-1.26-1.22-2.03-1.22-2.03s-.17-.13-1.41-1.98h-.01c-2.37-3.53-8.69-13.36-25.29-40.58h-.01c-.73-1.21-1.49-2.45-2.27-3.72-.21-.34-.42-.69-.63-1.04l-.01-.01c-8.75-5.77-41.65-7.35-51.61-7.35l-.52-.01-147.41-1.99h-12.2l-313.48.09h-12.64c-4.52.28-132.1.48-142.24 2.43-.01.01-.02.01-.03.01-.57.11-.97.11-.97.11s-25.78-.64-30.12 1.91c-1.36.8-2.69 1.37-3.88 1.78-3.28 1.12-6.34 2.79-8.91 5.12a70.019 70.019 0 00-2.28 2.18c-4.04 4.04-15.62 23.5-23.42 37.61-.66 1.2-1.3 2.36-1.9 3.47-.96 1.78-1.83 3.42-2.59 4.88-6.81 13.1-18.05 23.61-19.71 29.74-1.65 6.13-3.95 19.28-7.79 25.66-3.83 6.38-1.01 16.21 0 20.04 1.02 3.83.14 49.92.01 55.79 0 0 8.6-.85 20.6-2 .02-.03.04-.04.06-.04v-28.09c0-56.17 7.34-77.61 13.12-86.64 5.79-9.02 15.66-16.38 59.79-16.38l226.98-1.96h185l226.98 1.96c44.13 0 56.6 7.36 62.38 16.38 5.79 9.03 13.91 28.13 13.91 84.3v29.61h.03c.03 0 .06 0 .09.01 16.19 1.05 29.27 2.08 29.27 2.08.77-9.19 4.28-53.17 4.28-55.02 0-1.85.38-1.59 2.17-3.32 1.78-1.73-8.32-37.07-9-40.98zm-421.82-43.09a9.136 9.136 0 01-10.49-10.56c.63-3.77 3.67-6.81 7.44-7.43 6.25-1.03 11.58 4.34 10.52 10.59-.64 3.77-3.69 6.8-7.47 7.4zm38.13-26.36c-1.33 1.58-3.25 2.55-5.63 2.55h-66.88c-4.47 0-8.57-3.63-8.79-8.09-.13-2.62.6-5.01 2.04-6.72 1.32-1.57 3.24-2.55 5.63-2.55h66.91c4.57 0 8.52 3.49 8.76 8.05.14 2.63-.6 5.05-2.04 6.76zm381.87 141.6c-.19 1.41-1.5.74-6.48.48-4.98-.25-5.36-49.53-6-58.21-.64-8.68 7.91-1.53 7.91-1.53 4.08 2.44 4.76 57.86 4.57 59.26z"/><path d="M480.51 178.42c0 2.39-.73 4.56-2.05 6.13-1.33 1.58-3.25 2.55-5.63 2.55h-68c-4.78 0-7.68-3.9-7.68-8.68 0-2.39.72-4.55 2.05-6.13 1.32-1.57 3.24-2.55 5.63-2.55h68c4.77 0 7.68 3.91 7.68 8.68z"/><path class="st7" d="M447.94 201.91c0 5.03-4.08 9.12-9.11 9.12-5.04 0-9.12-4.09-9.12-9.12 0-5.03 4.08-9.12 9.12-9.12 5.03 0 9.11 4.09 9.11 9.12z"/><path class="st8" d="M341.04 224.59v92.71c-90.96-.76-190.85 2.17-292.34 4.31 0-50.84 7.16-74.25 12.8-82.42 5.64-8.16 15.26-14.83 58.28-14.83l221.26.23z"/><path class="st9" d="M280.57 289.4h-22.55c-2.41 0-4.38-1.97-4.38-4.38v-47.06c0-2.41 1.97-4.38 4.38-4.38h22.55c2.41 0 4.38 1.97 4.38 4.38v47.06c.01 2.4-1.96 4.38-4.38 4.38z"/><circle class="st10" cx="220.28" cy="264.2" r="28.85"/><circle class="st10" cx="155.74" cy="264.2" r="28.85"/><ellipse transform="rotate(-43.747 89.272 265.486)" class="st11" cx="89.27" cy="265.49" rx="26.98" ry="26.15"/><path class="st12" d="M821.4 237.31c-5.78-9.02-18.25-16.38-62.38-16.38l-226.98-1.96V321.4c93.31-.85 199.15-2.16 303.27.21 0-56.17-8.12-75.27-13.91-84.3zM538.04 317.3v-92.71l221.26-.23c.41 0 .82 0 1.23.01 42.02.12 54.06 6.74 59.65 14.82 5.64 8.17 13.58 29.24 13.58 80.08-24.37-.51-48.85-.94-73.23-1.28-77.15-1.07-153.37-1.27-222.49-.69z"/><path class="st8" d="M625.44 237.95v47.07c0 2.41-1.97 4.38-4.38 4.38h-22.55c-2.41 0-4.38-1.97-4.38-4.38v-47.07c0-2.41 1.97-4.38 4.38-4.38h22.55c2.41 0 4.38 1.97 4.38 4.38z"/><circle class="st8" cx="658.81" cy="264.21" r="28.85"/><circle class="st8" cx="723.34" cy="264.21" r="28.85"/><path class="st8" d="M629.96 303.36h124.61v10.72H629.96zM792.58 290.49c-15.36.67-28.36-11.24-29.04-26.6-.67-15.36 11.24-28.36 26.6-29.03 15.37-.67 28.37 11.23 29.04 26.6.67 15.36-11.24 28.36-26.6 29.03zM625.44 237.95v47.07c0 2.41-1.97 4.38-4.38 4.38h-22.55c-2.41 0-4.38-1.97-4.38-4.38v-47.07c0-2.41 1.97-4.38 4.38-4.38h22.55c2.41 0 4.38 1.97 4.38 4.38z"/><circle class="st8" cx="658.81" cy="264.21" r="28.85"/><circle class="st8" cx="723.34" cy="264.21" r="28.85"/><path class="st8" d="M792.58 290.49c-15.36.67-28.36-11.24-29.04-26.6-.67-15.36 11.24-28.36 26.6-29.03 15.37-.67 28.37 11.23 29.04 26.6.67 15.36-11.24 28.36-26.6 29.03z"/><path class="st4" d="M759.3 224.36l-221.26.23v92.71c69.12-.58 145.34-.38 222.49.69v-93.62c-.41-.01-.82-.01-1.23-.01zm-35.96 11c15.94 0 28.85 12.91 28.85 28.85 0 15.93-12.91 28.85-28.85 28.85-15.93 0-28.85-12.92-28.85-28.85 0-15.94 12.92-28.85 28.85-28.85zm-64.53 0c15.93 0 28.85 12.91 28.85 28.85 0 15.93-12.92 28.85-28.85 28.85-15.94 0-28.85-12.92-28.85-28.85 0-15.94 12.91-28.85 28.85-28.85zm-33.37 49.66c0 2.41-1.97 4.38-4.38 4.38h-22.55c-2.41 0-4.38-1.97-4.38-4.38v-47.07c0-2.41 1.97-4.38 4.38-4.38h22.55c2.41 0 4.38 1.97 4.38 4.38v47.07zm129.13 29.06H629.96v-10.72h124.61v10.72z"/><path class="st9" d="M625.44 237.95v47.07c0 2.41-1.97 4.38-4.38 4.38h-22.55c-2.41 0-4.38-1.97-4.38-4.38v-47.07c0-2.41 1.97-4.38 4.38-4.38h22.55c2.41 0 4.38 1.97 4.38 4.38z"/><circle class="st10" cx="658.81" cy="264.21" r="28.85"/><circle class="st10" cx="723.34" cy="264.21" r="28.85"/><path class="st8" d="M629.96 303.36h124.61v10.72H629.96z"/><path class="st13" d="M820.18 239.19c-5.59-8.08-17.63-14.7-59.65-14.82v93.62c24.38.34 48.86.77 73.23 1.28 0-50.84-7.94-71.91-13.58-80.08zm-27.6 51.3c-15.36.67-28.36-11.24-29.04-26.6-.67-15.36 11.24-28.36 26.6-29.03 15.37-.67 28.37 11.23 29.04 26.6.67 15.36-11.24 28.36-26.6 29.03z"/><path class="st11" d="M792.58 290.49c-15.36.67-28.36-11.24-29.04-26.6-.67-15.36 11.24-28.36 26.6-29.03 15.37-.67 28.37 11.23 29.04 26.6.67 15.36-11.24 28.36-26.6 29.03z"/><path class="st12" d="M347.04 218.97h185v5.62h-185zM347.04 317.3h185v4.1h-185z"/><path class="st6" d="M835.31 321.61v29.61c-17.03-1.11-37.48-2.25-49.76-2.25h-95.74c-100.09 1.54-188.68 2.81-222.9 2.81-34.21 0-305.87-1.27-305.87-1.27s-45.88-.3-73.49-.44c-12.28-.07-24.55.49-36.77 1.65-1.26.12-2.49.24-3.69.36.02-.03.04-.04.06-.04v-28.09c104.11-2.37 206.58-3.4 299.89-2.55h185c93.31-.85 199.15-2.16 303.27.21z"/><path class="st14" d="M39.89 379.14h-5.81c-3.14.38-5.44-18.85-2.29-19.23h5.46c.25 0 .43.25.35.49-.92 2.7.89 15.84 2.51 18.33.12.18 0 .41-.22.41z"/><path d="M855.51 378.72l-8.22-.01c-.27 0-.42-.24-.28-.44 2.05-2.69 4.35-16.88 3.19-19.8-.11-.26.12-.52.44-.52h6.79c.69 0 1.31.44 1.51 1.1 1.41 4.66.16 20.03-3.43 19.67z" fill="#c60026"/><path class="st6" d="M864 385.93c-.46 34.5-.88 83.85-1.34 86.62-.68 4.08-5.11 61.27-46.3 61.27h-56.01a.87.87 0 01-.87-.83l-1.65-53.85a28.043 28.043 0 00-.2-6.46c.01-.01.01-.02 0-.03l-.27-8.87c-1.74-26.39-1.07-52.17.36-78.63l69.66-.6c3.64-.03 7.27 0 10.9.09 3.54.09 7.08.23 10.61.43l15.11.86z"/><path class="st8" d="M868.98 298.29h.16c1.75 0 3.22 1.3 3.43 3.04"/><path class="st14" d="M472.38 185.4h-66.11c-3.67 0-6.68-3.01-6.68-6.68v-.6c0-3.67 3.01-6.68 6.68-6.68h66.11c3.12 0 5.68 2.56 5.68 5.68v2.6c0 3.12-2.55 5.68-5.68 5.68z"/><path d="M703.81 41.19l-3.79-.56c-.93-.14-1.84-.34-2.73-.61-.59-.17-1.16-.37-1.73-.59-4.34-1.72-9.3-3.42-15.07-5.14-20.43-6.09-57.85-11.87-210.36-11.87h-.28c-2.32 0-4.62 0-6.91.01-148.28.49-239.46 15.94-251.54 20.43-.11.05-.23.09-.34.13-1.38.52-2.75 1.05-4.13 1.59a81.659 81.659 0 00-9.99 4.76c-3.17 1.25-4.66.38-5.38-.8-.44-.72-.59-1.55-.67-2.1-.06-.47 0-.96.16-1.46 0-.02.01-.03.01-.05 1.89-5.65 16.62-13.06 16.62-13.06 21.08-9.04 76.94-12.26 100.42-14.98 23.49-2.72 103.83-6.3 126.64-6.3s122.9 1.7 146.39 2.72c23.49 1.03 61.95 2.9 76.59 5.45 8.89 1.55 19.66 3.98 28.31 6.87.94.31 1.88.65 2.79 1.02.92.37 1.82.76 2.71 1.18.45.22.89.44 1.33.66.43.22.86.46 1.28.7.32.18.63.36.95.55l.09.06.3.18c.11.06.21.13.3.19.01 0 .01.01.02.01.29.18.58.36.86.55.8.54 1.58 1.11 2.33 1.71.29.23.57.46.84.7.12.09.23.2.35.3.32.27.63.55.93.84.38.35.75.72 1.11 1.1.1.1.2.21.29.31l.02.02c.24.25.46.5.68.75.27.3.53.61.78.93.01.02.03.05.05.07.1.12.2.24.29.37.24.31.47.62.7.94.01.01.02.03.03.04.7.99-.03 2.37-1.25 2.38z" fill="#444"/><path d="M466.4 40.97c-16.68 0-15.06-3.23-15.06-3.23 0-2.43 10.72-4.21 10.72-8.94 0-1.95.33-4.29.88-6.37.79-2.95 2.04-5.37 3.46-5.37s2.67 2.41 3.45 5.36c.56 2.08.89 4.43.89 6.38 0 4.73 10.73 6.51 10.73 8.94 0 0 1.61 3.23-15.07 3.23z"/><path class="st14" d="M629.96 303.36h124.61v10.72H629.96zM125.89 304.35v10.73l125.62-1v-10.73z"/><path class="st0" d="M88.53 170.59c-.15 1.05-1.36 1.31-5.04 4.75 0 0-20.41-1.77-28.41 10.66-3.63 5.46-5.23 11.43-5.07 17.85.05 1.88.64 3.75 1.81 5.22 1.51 1.89 3.78 3.7 6.65 5.43-.66 1.2-1.3 2.36-1.9 3.47 0 0-5.83-.74-10.42-5.17-2.39-2.3-2.3-8.33-1.65-13.59.93-7.63 4.15-14.86 9.51-20.37 2.04-2.09 4.43-3.99 7.12-5.19 9.19-4.08 27.4-3.06 27.4-3.06zM807.73 171.89c-2.95-4.66-19.08-30.16-23.26-36.37-4.2-2.7-6.85-4.99-10.17-6.84-9.3-15.37-47.53-68.21-54.88-74.98-5.49-5.06-12.29-9.57-22.13-13.68.89.27 1.8.47 2.73.61l3.79.56c1.22-.01 1.95-1.39 1.25-2.38 10.41 3.14 17.66 8.67 22.66 15.01 17.31 21.95 49.32 67.63 80.01 118.07zM196.94 49.34c-9.77 5.49-18.35 12.95-25.22 21.89l-41.04 53.36v.01l-1.14.06-5.27.31s34.44-47.9 53.64-66.88c4.04-3.99 13.65-9.55 13.65-9.55.72 1.18 2.21 2.05 5.38.8zM705.05 38.76c0 .01-.01.02-.02.01-.23-.32-.46-.63-.7-.94-.09-.13-.19-.25-.29-.37a.304.304 0 01-.05-.07c-.25-.32-.51-.63-.78-.93-.22-.25-.44-.5-.68-.75l-.02-.02c-.09-.11-.19-.21-.29-.31-.36-.38-.73-.75-1.11-1.1-.3-.29-.61-.57-.93-.84-.12-.1-.23-.21-.35-.3-.27-.24-.55-.47-.84-.7-.75-.6-1.53-1.17-2.33-1.71-.28-.19-.57-.37-.86-.55-.01 0-.01-.01-.02-.01-.09-.06-.19-.13-.3-.19-.1-.07-.2-.13-.3-.18l-.09-.06c-.32-.19-.63-.37-.95-.55-.42-.24-.85-.48-1.28-.7-.44-.22-.88-.44-1.33-.66-.89-.42-1.79-.81-2.71-1.18-.91-.37-1.85-.71-2.79-1.02-8.65-2.89-19.42-5.32-28.31-6.87-14.64-2.55-53.1-4.42-76.59-5.45-23.49-1.02-123.58-2.72-146.39-2.72s-103.15 3.58-126.64 6.3c-23.48 2.72-79.34 5.94-100.42 14.98 0 0-14.73 7.41-16.62 13.06 3.22-20.63 59.61-26.92 89.2-29.51 19.62-1.72 39.32-3.78 58.99-4.83 34.93-1.88 88.46-4.07 99.83-4.25 15.83-.26 79.66-.26 100.85.76 20.67 1 116.11 5.22 135.2 11.04 17.01 4.27 27.32 9.67 29.92 20.62zM270.32 163.36c-4.52.28-132.1.48-142.24 2.43.98-.2 2.46-.73 3.35-2.15.79-1.14 1.57-2.83 2.18-5.29 0 0 40.08.06 97.63 0-.06 1.88-.01 3.99.2 3.99h12.19c.21 0 .26-2.1.2-3.99 6.44 0 19.62-.13 26.42-.14.08 1.59.07 3.34.07 5.15zM596.44 163.27l-313.48.09s-.12-2.43.2-5.17c92.87-.08 218.33-.15 312.98-.14.42 2.29.3 4.42.3 5.22zM756.05 165.26l-147.41-1.99s-.09-2.45.61-5.22c58.58.02 114.57.1 135.86.23 2.5 3.3 5.67 6.77 10.94 6.98z"/><path class="st8" d="M119.78 224.36v95.67M760.53 224.37v-.01"/><circle cx="438.83" cy="201.91" r="7.28"/><circle class="st7" cx="438.83" cy="201.91" r="5.66"/><path d="M439.17 199.92h.03c.42.03.71.43.58.84-.24.79-.65 2.28-.69 3.29-.04.99-.7-1.21-1.1-2.67-.21-.76.39-1.51 1.18-1.46z"/><circle class="st17" cx="156.31" cy="262.78" r="6.82"/><circle class="st17" cx="221.28" cy="263.2" r="6.43"/><ellipse transform="rotate(-43.747 96.127 264.2)" class="st17" cx="96.12" cy="264.21" rx="7.61" ry="6.97"/><circle class="st17" cx="723.34" cy="264.21" r="6.82"/><circle class="st17" cx="658.81" cy="264.21" r="6.43"/><ellipse transform="rotate(-46.251 785.482 262.984)" class="st17" cx="785.48" cy="263" rx="6.97" ry="7.61"/><defs><path id="XMLID_1_" d="M524.85 314.57H354.3c-2.13 0-3.85-1.72-3.85-3.85v-79.09c0-2.13 1.72-3.85 3.85-3.85h170.55c2.13 0 3.85 1.72 3.85 3.85v79.09c0 2.12-1.72 3.85-3.85 3.85z"/></defs><use xlink:href="#XMLID_1_" overflow="visible" fill="#fff"/><clipPath id="XMLID_7_"><use xlink:href="#XMLID_1_" overflow="visible"/></clipPath><ellipse class="st18" cx="383.19" cy="311.96" rx="3.64" ry="4.34"/><ellipse class="st18" cx="495.96" cy="313.7" rx="3.64" ry="4.34"/><path class="st1" d="M83.49 175.34c-.49.46-1.02.97-1.6 1.55-4.04 4.04-15.62 23.5-23.42 37.61-2.87-1.73-5.14-3.54-6.65-5.43-1.17-1.47-1.76-3.34-1.81-5.22-.16-6.42 1.44-12.39 5.07-17.85 8-12.43 28.41-10.66 28.41-10.66z"/><defs><path id="XMLID_3_" d="M270.25 158.21c-6.8.01-19.98.14-26.42.14-.04-1.01-.1-1.95-.19-2.48-.24-1.46 2.01-4.38 2.21-4.64 10.97-.22 18.93-.38 20.25-.38 3.15 0 3.95 3.12 4.15 7.36z"/></defs><use xlink:href="#XMLID_3_" overflow="visible" fill="#656499"/><clipPath id="XMLID_8_"><use xlink:href="#XMLID_3_" overflow="visible"/></clipPath><path d="M96.12 198.65C333.19 124.99 571.3 21.2 810.16-103.71c0 0 46.11 39.86 53.84 42.13 27.17 7.97-733.09 265.88-767.88 260.23z" opacity=".45" clip-path="url(#XMLID_8_)" fill="#fff"/><defs><path id="XMLID_5_" d="M596.14 158.05c-94.65-.01-220.11.06-312.98.14.43-3.59 1.62-7.71 4.86-7.71 5.72 0 295.07-.05 299.74 0 5.77 0 7.73 3.99 8.38 7.57z"/></defs><use xlink:href="#XMLID_5_" overflow="visible" fill="#656499"/><clipPath id="XMLID_9_"><use xlink:href="#XMLID_5_" overflow="visible"/></clipPath><path d="M96.12 198.65l714.04-302.36S871.72-63.88 864-61.58c-7.72 2.3-767.88 260.23-767.88 260.23z" clip-path="url(#XMLID_9_)" fill="#fff"/><path d="M757.72-7.2l55.66 24.26C664.29 83.67 426.39 141.24 159.83 195.9 400.42 133.2 616.89 67.57 757.72-7.2z" opacity=".45" clip-path="url(#XMLID_9_)" fill="#fff"/><path class="st1" d="M745.11 158.28c-21.29-.13-77.28-.21-135.86-.23.89-3.6 3.09-7.73 8.47-7.73 9.87 0 117.53.53 121.87 2.06 1.9.68 3.49 3.24 5.52 5.9z"/><g><defs><path id="XMLID_4_" d="M231.42 155.87c-.09.53-.15 1.48-.18 2.48-57.55.06-97.63 0-97.63 0l.06-.25c.26-1.11.5-2.37.69-3.81 1.02-2.55 13.91-1.27 32.68-1.53 10.43-.14 38.53-.71 62.18-1.19.21.24 2.45 2.84 2.2 4.3z"/></defs><use xlink:href="#XMLID_4_" overflow="visible" fill="#4c4a82"/><clipPath id="XMLID_10_"><use xlink:href="#XMLID_4_" overflow="visible"/></clipPath><path clip-path="url(#XMLID_10_)" fill="#fff" d="M757.72-7.2l55.66 24.26L159.83 195.9z"/><path d="M96.12 198.65C333.19 124.99 571.3 21.2 810.16-103.71c0 0 46.11 39.86 53.84 42.13 27.17 7.97-733.09 265.88-767.88 260.23z" opacity=".45" clip-path="url(#XMLID_10_)" fill="#fff"/></g><g><defs><path id="XMLID_2_" d="M774.3 128.68c-4.38-2.44-9.91-4.1-21.68-4.9-15.37-1.04-343.51-.53-511.15-.2l-.96-6.26-.03-.16-.29-1.93-7.39-26.57a12.92 12.92 0 01-.19-6.21c.56-2.6 1.38-6.41 2.05-9.68a6.237 6.237 0 013.39-4.37c3.93-1.92 10.69-5.06 14.22-6.76-7.49 50.22-1.1 45.93-1.1 45.93l8.42-68.55c-3.95 0-7.23 20-7.23 20-1.55.64-19.66 9.44-21.19 10.55-1.39 1-1.73 6.36-3.18 13.89-.26 1.36-.32 2.75-.14 4.12 1.08 8.09 1.19 36.02 1.19 36.02-33.94.07-60.05.13-73.72.16-7.08.01-14.15.23-21.21.64l-3.43.19 41.04-53.36c6.87-8.94 15.45-16.4 25.22-21.89 3.21-1.8 6.54-3.4 9.99-4.76 1.38-.54 2.75-1.07 4.13-1.59.11-.04.23-.08.34-.13 12.08-4.49 103.26-19.94 251.54-20.43-.55 2.08-.88 4.42-.88 6.37 0 4.73-10.72 6.51-10.72 8.94 0 0-1.62 3.23 15.06 3.23s15.07-3.23 15.07-3.23c0-2.43-10.73-4.21-10.73-8.94 0-1.95-.33-4.3-.89-6.38h.28c152.51 0 189.93 5.78 210.36 11.87 5.77 1.72 10.73 3.42 15.07 5.14.57.22 1.14.42 1.73.59 9.84 4.11 16.64 8.62 22.13 13.68 7.35 6.77 45.58 59.61 54.88 74.98z"/></defs><use xlink:href="#XMLID_2_" overflow="visible" fill="#656499"/><clipPath id="XMLID_11_"><use xlink:href="#XMLID_2_" overflow="visible"/></clipPath><path class="st24" d="M96.12 198.65C333.19 124.99 571.3 21.2 810.16-103.71c0 0 46.11 39.86 53.84 42.13 27.17 7.97-733.09 265.88-767.88 260.23zM757.72-7.2l55.66 24.26C664.29 83.67 426.39 141.24 159.83 195.9 400.42 133.2 616.89 67.57 757.72-7.2z"/></g><g><path class="st25" d="M259.59 39.02l-8.42 68.55s-6.39 4.29 1.1-45.93v-.01l.09-2.61s3.28-20 7.23-20zM243.83 158.35c.06 1.89.01 3.99-.2 3.99h-12.19c-.21 0-.26-2.11-.2-3.99.03-1 .09-1.95.18-2.48.25-1.46-1.99-4.06-2.2-4.3 5.94-.13 11.6-.24 16.63-.34-.2.26-2.45 3.18-2.21 4.64.09.53.15 1.47.19 2.48z"/><path class="st25" d="M253.3 61.14c-.3.15-.65.31-1.03.49v.01c-3.53 1.7-10.29 4.84-14.22 6.76-1.75.85-3 2.46-3.39 4.37-.67 3.27-1.49 7.08-2.05 9.68-.44 2.06-.38 4.19.19 6.21l7.39 26.57.29 1.93.03.16.96 6.26v.02h-12.43s-.11-27.93-1.19-36.02c-.18-1.37-.12-2.76.14-4.12 1.45-7.53 1.79-12.89 3.18-13.89 1.53-1.11 19.64-9.91 21.19-10.55 1.46-.61 1.63-3.83 1.87-4.07 0 0 .91-.44 1.13-.44.13 0 .87-.08.87.96 0 .67.15 4.16-2.93 5.67z"/></g><path class="st26" d="M838.28 384.64c-3.63-.09-7.26-.12-10.9-.09l-69.66.6-292.34 2.54s-235.81-1.11-354.51-1.66c-30.37-.14-53.08-.24-62.2-.28h-.01c-1.11-.71-2.58-32.37-1.57-33.67h.01c1.2-.12 2.42-.24 3.68-.36a366.94 366.94 0 0136.77-1.65c27.61.14 73.49.44 73.49.44s271.66 1.27 305.87 1.27c34.22 0 122.81-1.27 222.9-2.81h95.74c12.28 0 32.73 1.14 49.76 2.25h.03c.03 0 .06 0 .09.01 2.65.73 5.48 33.17 2.85 33.41z"/><path d="M860.33 326.15c-.19 1.41-1.5.74-6.48.48-4.98-.25-5.36-49.53-6-58.21-.64-8.68 7.91-1.53 7.91-1.53 4.08 2.44 4.76 57.86 4.57 59.26z" fill="#fff"/><path class="st26" d="M47.1 352.08h-.01c-11.99 1.15-20.59 2-20.59 2-.13 5.87 1.91 29.62 2.55 33.32 0 0 .02 0 .07-.02.8-.15 8.48-1.64 15.25-1.64.37 0 1.83.01 4.29.01-1.11-.9-2.57-32.37-1.56-33.67zm-7.01 26.98a.24.24 0 01-.19.08h-5.81c-.29.03-.57-.09-.83-.35-2.5-2.45-4.09-16.39-1.99-18.59a.81.81 0 01.53-.29h5.46c.1 0 .19.04.25.11.1.09.15.24.1.38-.92 2.7.89 15.84 2.51 18.33.08.11.06.25-.03.33zM835.31 351.08c2.65.73 5.48 33.17 2.85 33.41 3.54.09 7.08.23 10.61.43l15.11.86c.22-16.52.45-29.64.7-32.62 0 0-13.08-1.03-29.27-2.08zm20.08 27.49l-8.22-.01c-.27 0-.42-.24-.28-.44 2.05-2.69 4.35-16.88 3.19-19.8-.11-.26.12-.52.44-.52h6.79c.69 0 1.31.44 1.51 1.1 1.41 4.66.16 20.03-3.43 19.67z"/><ellipse class="st28" cx="718.95" cy="479.68" rx="41.98" ry="39.49"/><circle class="st29" cx="722.78" cy="477.01" r="30.81"/><ellipse class="st28" cx="161.49" cy="483.68" rx="41.98" ry="39.49"/><circle class="st29" cx="156.66" cy="479.01" r="30.81"/><g><path d="M406.47 264.65c0 .24-.09.37-.27.37h-3.88c-.09 0-.17-.01-.25-.03-.08-.02-.12-.13-.12-.33v-19.21c0-.13-.04-.21-.13-.23-.09-.02-.18.06-.27.23l-4.51 9.49c-.13.18-.23.27-.3.27-.16 0-.29-.09-.4-.26-.35-.51-1.11-2.15-2.29-4.93-1.17-2.77-1.86-4.39-2.05-4.86-.04-.11-.11-.16-.18-.13-.08.02-.12.11-.12.27v19.2c0 .2-.01.31-.03.33h-4.21c-.18 0-.27-.11-.27-.33v-28.92c0-.29.09-.43.27-.43h2.45c.31-.02.5.06.56.23l5.87 12.54c.13.24.27.36.4.36.16 0 .3-.12.43-.36l6-12.34c.11-.2.28-.3.5-.3h2.52c.18 0 .27.1.27.3v29.07zM427.77 264.32v.23c-.07.13-.24.2-.53.2h-16.78c-.4 0-.65-.06-.76-.17-.11-.11-.17-.38-.17-.8V235.6c0-.38.19-.56.56-.56h15.56c.4 0 .6.16.6.46v2.75c0 .31-.23.46-.7.46H414.7c-.38 0-.59.14-.63.41-.04.28-.07.69-.07 1.24v4.54c0 .26.04.44.13.51.09.08.34.12.76.12h7.36c.31 0 .55.06.71.18.17.12.25.28.25.48v2.26c0 .27-.09.44-.27.53-.18.09-.36.13-.56.13h-7.16c-.62 0-.98.02-1.08.07-.1.04-.15.26-.15.63v9.72c0 .31.3.47.89.47h12.14c.49 0 .73.15.73.46v3.86zM449.16 257.64c0 2.24-.52 3.94-1.56 5.12-1.17 1.33-3.01 1.99-5.51 1.99h-10.95c-.22 0-.44-.02-.66-.07-.22-.04-.33-.17-.33-.37v-3.46c0-.07.48-.34 1.43-.83.46-.24.7-.47.7-.67V240.1c0-.24-.33-.52-.98-.83-.65-.31-.98-.53-.98-.67v-3.12c0-.11.07-.2.22-.27.14-.07.3-.1.48-.1h11.64c.66 0 1.45.18 2.37.55.92.37 1.63.79 2.14 1.28.44.42.85.96 1.23 1.63.51.91.76 1.77.76 2.59v16.48zm-4.84-.02v-16.05c0-.71-.32-1.33-.96-1.86-.64-.53-1.44-.8-2.41-.8h-3.17c-.18 0-.36.06-.55.18-.19.12-.28.27-.28.45v19.96c0 .24.06.4.2.47s.45.1.96.1h1.49c2.2 0 3.62-.3 4.26-.9.3-.28.46-.8.46-1.55zM465.81 264.39c0 .18-.11.26-.33.26h-13.2c-.27 0-.4-.14-.4-.43v-3.68c0-.13.08-.22.23-.26l4.48-.89c.09-.04.17-.14.23-.3v-18.65c0-.16-.01-.31-.02-.48-.01-.17-.13-.33-.35-.48-.33-.24-.67-.5-1.01-.76-.34-.26-.51-.51-.51-.73v-2.05c0-.18.06-.35.18-.53.12-.18.34-.26.65-.26h6.53c.47 0 .7.21.7.63v2.38c0 .18-.19.39-.56.63-.64.4-1.02.65-1.13.75-.11.1-.17.4-.17.91v18.95c0 .13.08.2.23.2l4.11.6c.22 0 .33.08.33.23v3.96zM489.12 264.25c.04.33-.11.5-.46.5h-3.68c-.35 0-.57-.17-.66-.5l-1.19-5.44h-9.19l-1.19 5.44c-.09.33-.32.5-.7.5h-3.65c-.13 0-.25-.06-.35-.16-.1-.11-.14-.22-.12-.33l6.37-28.62c.09-.33.31-.5.66-.5h7.13c.38 0 .6.17.66.5l6.37 28.61zm-7.86-9.45c.38 0 .6-.04.68-.11.08-.08.12-.19.12-.35-.02-.18-.03-.31-.03-.4l-3.05-13.84c-.02-.13-.08-.21-.17-.23-.09-.02-.18-.04-.26-.07-.09 0-.19.01-.3.03-.11.02-.18.11-.2.26l-3.02 13.84c-.09.38-.06.61.1.69.11.11.33.16.66.16h5.47zM406.34 275.76l-8.69 11.71c-.13.18-.2.32-.2.43 0 .07.03.15.08.25.06.1.09.18.12.25l4.41 7.79c.91 1.61 1.57 2.81 1.99 3.58 1.44 2.57 2.24 4.02 2.42 4.38.07.11.1.21.1.3 0 .18-.12.27-.36.27h-3.58c-.35 0-.57-.02-.66-.07-.09-.11-.15-.21-.2-.3-.99-1.59-1.54-2.47-1.62-2.62-.93-1.55-1.86-3.08-2.79-4.61-1.55-2.54-2.43-4-2.65-4.38a.354.354 0 00-.33-.2c-.09 0-.16.03-.23.1-.18.18-.54.58-1.08 1.21s-.97 1.1-1.28 1.41c-.09.16-.13.39-.13.7v8.19c0 .29-.14.43-.43.43h-3.58c-.29 0-.43-.14-.43-.43V275.4c0-.31.11-.46.33-.46h3.78c.31 0 .47.1.47.3v11.64c0 .69.07 1.03.2 1.03.04 0 .11-.04.2-.13.38-.4 1.31-1.54 2.79-3.42 1.15-1.46 2.48-3.18 3.98-5.16s2.44-3.21 2.82-3.7c.18-.27.46-.4.86-.4h3.58c.2 0 .3.08.3.23-.02.11-.08.25-.19.43zM426.74 303.99c0 .2-.08.3-.23.3h-3.79c-.22 0-.33-.1-.33-.3v-1.09-.26-.2c0-.46-.17-.7-.5-.7-.82.73-1.79 1.38-2.92 1.96-1.13.57-2.36.86-3.68.86-1.79 0-3.32-.68-4.59-2.04-1.27-1.36-1.91-2.88-1.91-4.56v-22.69c0-.22.13-.33.4-.33H413c.24 0 .37.09.37.26v21.5c0 .79.23 1.45.7 1.95.64.71 1.65 1.06 3.02 1.06 1.55 0 2.8-.6 3.75-1.79.88-1.1 1.33-2.43 1.33-3.97v-18.28-.5c.04-.15.16-.23.33-.23h4.01c.15 0 .23.11.23.33v28.72zM448.43 279.44c0 .15-.07.23-.2.23h-6.6c-.27 0-.4.09-.4.27v24.28c0 .22-.12.33-.37.33h-4.01c-.18 0-.27-.08-.27-.23v-24.14c0-.33-.16-.5-.46-.5h-6.1c-.16 0-.23-.11-.23-.33v-4.02c0-.07.06-.15.17-.26l.07-.07h18.11c.2 0 .3.11.3.33v4.11zM470.72 275.76l-8.69 11.71c-.13.18-.2.32-.2.43 0 .07.03.15.08.25.06.1.09.18.12.25l4.41 7.79c.91 1.61 1.57 2.81 1.99 3.58 1.44 2.57 2.24 4.02 2.42 4.38.07.11.1.21.1.3 0 .18-.12.27-.36.27H467c-.35 0-.57-.02-.66-.07-.09-.11-.15-.21-.2-.3-.99-1.59-1.54-2.47-1.62-2.62-.93-1.55-1.86-3.08-2.79-4.61-1.55-2.54-2.43-4-2.65-4.38a.354.354 0 00-.33-.2c-.09 0-.16.03-.23.1-.18.18-.54.58-1.08 1.21s-.97 1.1-1.28 1.41c-.09.16-.13.39-.13.7v8.19c0 .29-.14.43-.43.43h-3.58c-.29 0-.43-.14-.43-.43V275.4c0-.31.11-.46.33-.46h3.78c.31 0 .47.1.47.3v11.64c0 .69.07 1.03.2 1.03.04 0 .11-.04.2-.13.38-.4 1.31-1.54 2.79-3.42 1.15-1.46 2.48-3.18 3.98-5.16s2.44-3.21 2.82-3.7c.18-.27.46-.4.86-.4h3.58c.2 0 .3.08.3.23-.02.11-.07.25-.18.43zM493.87 304.05c.04.33-.11.5-.46.5h-3.68c-.35 0-.57-.17-.66-.5l-1.19-5.44h-9.19l-1.19 5.44c-.09.33-.32.5-.7.5h-3.65c-.13 0-.25-.06-.35-.16-.1-.11-.14-.22-.12-.33l6.37-28.62c.09-.33.31-.5.66-.5h7.13c.38 0 .6.17.66.5l6.37 28.61zm-7.86-9.45c.38 0 .6-.04.68-.11.08-.08.12-.19.12-.35-.02-.18-.03-.31-.03-.4l-3.05-13.84c-.02-.13-.08-.21-.17-.23-.09-.02-.18-.04-.26-.07-.09 0-.19.01-.3.03-.11.02-.18.11-.2.26l-3.02 13.84c-.09.38-.06.61.1.69.11.11.33.16.66.16h5.47z"/></g><path class="st6" d="M757.36 463.78c-.9.03-1.68.13-2.35.26-1.15-2.36-2.6-4.56-4.32-6.52-1.92-7.33-9.69-15.87-32.2-15.87-40.17 0-31.07 21.77-33.7 21.77-2.38 0-401.63 7.44-480.64 4.38-8.5-.33-13.29-.79-13.49-1.38-.68-2.04-1.16-4.99-2.63-8.04-2.95-6.14-9.92-12.64-30.56-12.64-22.77 0-28.34 9.57-29.7 14.6-.86.95-1.8 7.14-2.52 8.2l-7.36 11.54-4.53-12.13c1-26.75.78-57.55-2.49-81.92 118.7.55 354.51 1.66 354.51 1.66l292.34-2.54c-1.43 26.46-2.1 52.24-.36 78.63z"/><path class="st6" d="M122.51 524.27c.04 3.87-2.74 7.12-6.39 7.45-9.88.92-29.49 2.02-47.42 1.37-28.2-1.02-42.17-46.72-42.17-58.46 0-11.31 2.89-78.92 2.54-87.26.78-.15 8.29-1.64 14.9-1.64.36 0 1.79.01 4.19.01h.01c8.91.04 41.86.14 71.54.28 3.2 24.37 2.57 50 1.59 76.75.49.89 1.03 44.62 1.21 61.5z"/><path d="M763.93 468.8c0 .79-.03 1.57-.1 2.34-1.2 15.27-14.14 27.28-29.92 27.28-16.58 0-30.02-13.26-30.02-29.62 0-16.35 13.44-29.61 30.02-29.61 9.11 0 17.28 4.01 22.78 10.33 1.72 1.96 3.17 4.16 4.32 6.52a29.28 29.28 0 012.62 8.61c.01.01.01.02 0 .03.2 1.35.3 2.72.3 4.12zM117.51 471.8c0 .79.03 1.57.1 2.34 1.2 15.27 14.14 27.28 29.92 27.28 16.58 0 30.02-13.26 30.02-29.62 0-16.35-13.44-29.61-30.02-29.61-9.11 0-17.28 4.01-22.78 10.33a29.424 29.424 0 00-4.32 6.52 29.28 29.28 0 00-2.62 8.61c-.01.01-.01.02 0 .03-.2 1.35-.3 2.72-.3 4.12z"/><path class="st13" d="M48.7 321.61c23.37-.53 46.84-.97 70.22-1.32v-96.56c-40.3.12-51.84 6.95-57.2 15.28-5.4 8.43-13.02 30.16-13.02 82.6zm14.03-56.86c-.03-13.18 13.39-26.68 28.11-25.79 12.37.74 25.2 12.23 25.2 25.54 0 14.78-13.12 28.13-27.85 27.43-14.73-.7-25.43-11.33-25.46-27.18z"/><path class="st12" d="M120.06 220.93c-44.13 0-54 7.36-59.79 16.38-5.78 9.03-13.12 30.47-13.12 86.64 104.11-2.37 206.58-3.4 299.89-2.55V218.97l-226.98 1.96zm220.98 96.37c-90.96-.76-190.85 2.17-292.34 4.31 0-50.84 7.16-74.25 12.8-82.42 5.64-8.16 15.26-14.83 58.28-14.83l221.26.23v92.71z"/><g><path class="st30" d="M666.04 197.84v1.69h-7.05c-.02-.34-.05-.66-.05-.98v-9.63c0-1.4-.6-1.96-2.1-2-.6-.01-1.21 0-1.93 0v12.62h-6.81V187h-3.9v12.53h-7.17v-18.66h21.65c4.66 0 7.35 2.54 7.35 6.95v1.22c1.9-1.48 4.01-1.51 6.14-1.51 2.28 0 4.56 0 6.99-.21-.33-.25-.62-.62-1-.73-.54-.16-1.13-.2-1.7-.2-2.95-.02-5.91-.01-8.86-.01h-1.09v-5.42c.22-.03.46-.09.71-.09 4.18-.01 8.35-.03 12.53 0 2.97.02 5.1 1.45 5.67 3.75.16.64.17 1.32.17 1.98.03 2.18.02 4.36.03 6.54 0 .06.04.11.1.25.21-.13.43-.24.61-.38 5.16-3.85 10.31-7.72 15.5-11.54.48-.35 1.2-.59 1.81-.59 5.14-.05 10.28.07 15.42-.05 4.31-.1 7.21 2.38 7.68 6.75.05.44.09.88.14 1.48 1.76-1.43 3.75-1.51 5.75-1.52 2.12-.01 4.24 0 6.36 0h1.02c-.32-.96-1.03-1.1-1.77-1.11-2.5-.03-5.01-.03-7.51-.04h-3.25v-5.46c.31-.02.62-.05.93-.05 4.01 0 8.03-.01 12.04 0 1.83.01 3.5.43 4.79 1.74.89.91 1.29 2.03 1.3 3.24.03 4.42.01 8.85.01 13.27 0 .12-.04.23-.07.46h-1.14c-4.34 0-8.67-.03-13.01.01-3.01.02-5.39-.9-6.65-3.64-.07.02-.12.02-.13.04-1.61 2.79-4.17 3.65-7.41 3.54-3.88-.13-7.77-.03-11.66-.03h-1.11v-12.9c-.42.31-.68.49-.94.69-5.17 3.93-10.34 7.88-15.54 11.79-.39.29-.97.49-1.46.49-5.52.03-11.05.02-16.57.02-1.75-.01-3.33-.47-4.82-1.76zm-.66-1.77c1.47 2.31 3.63 2.93 6.23 2.9 5.17-.06 10.34 0 15.51-.04.52 0 1.14-.2 1.54-.51 5.6-4.21 11.16-8.46 16.74-12.69.16-.12.34-.2.68-.4v13.46c.25.03.37.06.5.06 4.37 0 8.74.07 13.1-.04 1.09-.03 2.36-.37 3.21-.98.97-.7 1.55-1.86 2.32-2.81.15-.19.37-.34.56-.51.13.15.32.28.38.45 1.02 2.81 2.73 3.98 5.86 3.98h13.86v-1.06-11.36c0-3.25-1.88-5.02-5.37-5.03-3.85-.01-7.71 0-11.56 0h-.77v4.21h1.09c2.76 0 5.52-.02 8.28.02.72.01 1.48.13 2.15.37.95.35 1.2 1.17.79 2.09h-8.75c-2.31 0-4.28.63-5.44 2.86-.11-1.47-.11-2.77-.31-4.04-.55-3.61-3.26-5.61-6.75-5.54-5.07.11-10.15.04-15.22.01-.8-.01-1.39.22-2 .67-5.37 4.04-10.76 8.05-16.15 12.08-.26.19-.53.37-.91.63v-5.46-3c0-3.05-1.88-4.88-5.12-4.9-4.01-.03-8.03-.01-12.04 0-.18 0-.36.05-.52.07v4.14c3.12 0 6.17-.02 9.22.01.73.01 1.48.1 2.17.32 1.02.32 1.34 1.09 1.01 2.15h-1.03c-2.67.01-5.33.01-8 .02-2.13.01-3.9.64-4.99 2.5-.01.02-.11 0-.25 0 0-1.01.02-2.04 0-3.06-.07-3.93-2.48-6.16-6.66-6.16h-20.98v17.4h5.8v-12.59h5.2v12.59h5.54v-12.6c1.12 0 2.15-.09 3.15.02 1.51.17 2.23 1.03 2.24 2.48.01 2 0 4 0 6v4.1h5.73c-.04-.96-.04-1.89-.04-2.81z"/><path class="st30" d="M685.98 186.92v-5.98h15.62c-2.55 2-4.96 3.9-7.39 5.78a1.1 1.1 0 01-.61.19c-2.5.01-5 .01-7.62.01zm13.75-5.37H686.7v4.7c2.27 0 4.48 0 6.69-.01.18 0 .4-.05.53-.16 1.9-1.46 3.78-2.94 5.81-4.53zM689.29 199.52c1.94-1.51 3.8-2.8 5.46-4.29 1.43-1.28 2.97-1.78 4.91-1.62 1.71.14 3.45.03 5.25.03v5.88h-15.62zm14.92-.61v-4.65c-2.1 0-4.12-.03-6.13.02-.52.01-1.13.21-1.54.5-1.6 1.16-3.14 2.39-4.7 3.6-.17.14-.32.31-.53.52 4.38.01 8.63.01 12.9.01z"/><path class="st30" d="M665.38 196.07v2.83h-5.73v-4.1c0-2 .01-4 0-6-.01-1.45-.73-2.31-2.24-2.48-1-.11-2.03-.02-3.15-.02v12.6h-5.54v-12.59h-5.2v12.59h-5.8v-17.4h20.98c4.17 0 6.59 2.23 6.66 6.16.02 1.02 0 2.04 0 3.06.15 0 .24.02.25 0 1.09-1.86 2.86-2.5 4.99-2.5 2.67-.01 5.33-.02 8-.02h1.03c.33-1.06.01-1.82-1.01-2.15-.68-.22-1.44-.31-2.17-.32-3.05-.03-6.1-.01-9.22-.01v-4.14c.16-.02.34-.07.52-.07 4.01 0 8.03-.03 12.04 0 3.24.02 5.12 1.86 5.12 4.9v8.46c.38-.27.65-.44.91-.63 5.39-4.02 10.78-8.04 16.15-12.08.61-.46 1.2-.68 2-.67 5.07.03 10.15.1 15.22-.01 3.5-.07 6.21 1.93 6.75 5.54.19 1.27.2 2.57.31 4.04 1.16-2.23 3.13-2.86 5.44-2.86h8.75c.42-.92.17-1.74-.79-2.09-.67-.25-1.43-.36-2.15-.37-2.76-.04-5.52-.02-8.28-.02h-1.09v-4.21h.77c3.85 0 7.71-.01 11.56 0 3.49.01 5.37 1.78 5.37 5.03v12.42h-13.86c-3.13 0-4.84-1.17-5.86-3.98-.06-.17-.25-.3-.38-.45-.19.17-.41.31-.56.51-.77.95-1.35 2.12-2.32 2.81-.85.61-2.12.95-3.21.98-4.36.11-8.73.04-13.1.04-.12 0-.25-.03-.5-.06v-13.46c-.34.2-.52.29-.68.4-5.58 4.23-11.14 8.48-16.74 12.69-.41.31-1.02.51-1.54.51-5.17.04-10.34-.02-15.51.04-2.56.01-4.72-.61-6.19-2.92zm46.22-1.84c2.25 0 4.39.04 6.54-.01 1.27-.03 2.16-.78 2.38-1.9.24-1.2.34-2.47.2-3.67-.15-1.32-1.06-2.43-2.49-2.55-2.18-.18-4.39-.05-6.62-.05-.01 2.71-.01 5.39-.01 8.18zm28.89-2.63c-2.5 0-4.9-.03-7.3.02-1.03.02-1.56.64-1.52 1.52.04.88.6 1.42 1.6 1.47.67.03 1.34.01 2.02.01h5.2v-3.02zm-60.8 0c-2.51 0-4.94-.03-7.37.02-.91.02-1.43.62-1.45 1.41-.02.84.51 1.53 1.4 1.55 2.46.05 4.91.02 7.41.02.01-1.02.01-1.94.01-3z"/><path class="st30" d="M699.65 181.61c-2.03 1.59-3.91 3.07-5.81 4.53-.13.1-.35.16-.53.16-2.21.01-4.42.01-6.69.01v-4.7h13.03zM704.21 198.91h-12.9c.22-.21.36-.39.53-.52 1.56-1.21 3.1-2.44 4.7-3.6.41-.3 1.02-.49 1.54-.5 2.01-.06 4.03-.02 6.13-.02v4.64zM711.6 194.23v-8.18c2.23 0 4.44-.13 6.62.05 1.43.12 2.34 1.23 2.49 2.55.14 1.21.04 2.47-.2 3.67-.22 1.12-1.11 1.87-2.38 1.9-2.13.04-4.28.01-6.53.01zm.7-.58h4.4c2.61 0 3.44-.77 3.49-3.24.01-.39.02-.79-.02-1.18-.14-1.35-1.04-2.5-2.29-2.58-1.84-.12-3.7-.03-5.58-.03v7.03zM740.49 191.6v3.01h-5.2c-.67 0-1.35.02-2.02-.01-1-.05-1.57-.59-1.6-1.47-.04-.88.49-1.5 1.52-1.52 2.4-.04 4.79-.01 7.3-.01zm-.67.63c-2.2 0-4.34-.03-6.48.04-.34.01-.85.45-.95.77-.17.56.33.93.89.94 2.17.03 4.34.01 6.54.01v-1.76zM679.69 191.6v2.99c-2.5 0-4.96.03-7.41-.02-.9-.02-1.43-.7-1.4-1.55.02-.79.54-1.39 1.45-1.41 2.42-.04 4.85-.01 7.36-.01zm-.69.63c-2.23 0-4.4-.03-6.57.04-.29.01-.83.54-.8.77.05.34.51.88.81.89 2.17.08 4.34.04 6.56.04v-1.74z"/></g><g><path class="st30" d="M122.89 193.09v5.73c0 .61.49 1.1 1.1 1.1h24.24v-7.85h-24.32c-.56-.01-1.02.45-1.02 1.02z"/><path class="st30" d="M201.15 199.02l-9.89-9.89 9.45-6.54c.47-.32.24-1.06-.33-1.06h-8.93s-4.09 4.28-4.28 4.28c-.19 0-4.15-4.15-4.15-4.15h-7.54c-.53 0-.78.66-.39 1.01l7.92 7.03s-8.62 6.96-8.81 6.96-4.85-4.85-4.85-4.85c7.23 0 7.23-10.15 0-10.15h-20.64a.49.49 0 00-.49.49v17.77l5.22.08c.43.01.78-.34.78-.76v-5.95h8.55l6.05 6.05c.42.42 1 .66 1.6.66h8.52c.56 0 1.09-.22 1.49-.62l6.72-6.72 7.36 7.36h6.23a.59.59 0 00.41-1zm-33.7-10.28H154.3v-3.06h13.15c1.53 0 1.53 3.06 0 3.06zM201.53 188.74h6.89v4.79h-6.89z"/><path class="st30" d="M206.32 181.53v4.85h14.23l-13.93 13.93h9.02l11.4-11.4c4.66-4.66 2.26-7.38 0-7.38h-20.72z"/></g></svg>